<svg width="600" height="380" viewBox="0 0 600 380" xmlns="http://www.w3.org/2000/svg" xmlns:xlink="http://www.w3.org/1999/xlink">
  <defs>
    <style>
      @import url('https://fonts.googleapis.com/css2?family=Press+Start+2P&amp;family=Roboto:wght@400;500&amp;display=swap');
    </style>
    <pattern id="groundTexture" width="80" height="24" patternUnits="userSpaceOnUse">
      <path d="M0,15 L4,15 Q9,8 14,15 L18,15 Q23,8 28,15 L80,15"
            fill="none" stroke="#b7b7b7" stroke-width="1.5"/>
      <rect x="38" y="14" width="5" height="2" fill="#b7b7b7"/>
      <circle cx="50" cy="15" r="1" fill="#b7b7b7"/>
      <rect x="58" y="14" width="8" height="2" fill="#b7b7b7"/>
      <circle cx="72" cy="15" r="1" fill="#b7b7b7"/>
      <animateTransform attributeName="patternTransform" type="translate"
        values="-0.0,0; -134.038,0; -269.466,0; -406.282,0; -544.487,0; -684.082,0; -825.065,0; -967.437,0; -1111.198,0; -1256.349,0; -1402.888,0; -1550.816,0; -1700.134,0; -1850.84,0; -2002.935,0; -2156.419,0; -2311.293,0; -2467.555,0; -2625.206,0; -2784.246,0; -2944.676,0; -3106.494,0; -3269.701,0; -3434.298,0; -3600.283,0"
        keyTimes="0.0;0.04167;0.08333;0.125;0.16667;0.20833;0.25;0.29167;0.33333;0.375;0.41667;0.45833;0.5;0.54167;0.58333;0.625;0.66667;0.70833;0.75;0.79167;0.83333;0.875;0.91667;0.95833;1.0"
        begin="1.5s" dur="8.9127s" repeatCount="3.5904" fill="freeze"/>
    </pattern>
    <pattern id="belowGroundLines" width="360" height="10" patternUnits="userSpaceOnUse">
      <rect x="5.3" y="4.5" width="9.6" height="1.3" fill="#cfcfcf"/>
      <rect x="19.4" y="4.2" width="3.6" height="1.3" fill="#cfcfcf"/>
      <rect x="61.9" y="4.5" width="7.7" height="1.2" fill="#cfcfcf"/>
      <rect x="72.9" y="3.5" width="5.3" height="1.3" fill="#cfcfcf"/>
      <rect x="115.5" y="3.4" width="7.6" height="1.3" fill="#cfcfcf"/>
      <rect x="130.0" y="3.9" width="8.4" height="1.5" fill="#cfcfcf"/>
      <rect x="145.5" y="4.5" width="8.6" height="1.3" fill="#cfcfcf"/>
      <rect x="163.3" y="4.4" width="7.9" height="1.2" fill="#cfcfcf"/>
      <rect x="176.5" y="5.0" width="3.3" height="1.6" fill="#cfcfcf"/>
      <rect x="222.4" y="5.0" width="5.8" height="1.5" fill="#cfcfcf"/>
      <rect x="269.0" y="4.8" width="8.3" height="1.2" fill="#cfcfcf"/>
      <rect x="287.2" y="4.0" width="8.7" height="1.7" fill="#cfcfcf"/>
      <rect x="301.4" y="3.5" width="3.5" height="1.7" fill="#cfcfcf"/>
      <rect x="309.7" y="3.8" width="4.3" height="1.4" fill="#cfcfcf"/>
      <animateTransform attributeName="patternTransform" type="translate"
        values="-0.0,0; -134.038,0; -269.466,0; -406.282,0; -544.487,0; -684.082,0; -825.065,0; -967.437,0; -1111.198,0; -1256.349,0; -1402.888,0; -1550.816,0; -1700.134,0; -1850.84,0; -2002.935,0; -2156.419,0; -2311.293,0; -2467.555,0; -2625.206,0; -2784.246,0; -2944.676,0; -3106.494,0; -3269.701,0; -3434.298,0; -3600.283,0"
        keyTimes="0.0;0.04167;0.08333;0.125;0.16667;0.20833;0.25;0.29167;0.33333;0.375;0.41667;0.45833;0.5;0.54167;0.58333;0.625;0.66667;0.70833;0.75;0.79167;0.83333;0.875;0.91667;0.95833;1.0"
        begin="1.5s" dur="8.9127s" repeatCount="3.5904" fill="freeze"/>
    </pattern>
  </defs>

  <rect width="600" height="380" fill="#ffffff"/>

  <!-- score: HI stays fixed; 00 + 3-digit odometer (hundreds/tens/ones) gives 00000 to 00299, then wraps -->
  <g opacity="0">
    <animate attributeName="opacity" values="0;1" begin="1.49s" dur="0.01s" fill="freeze"/>
    <text x="505" y="28" font-family="'Press Start 2P', monospace" font-size="16" fill="#535353" text-anchor="end">HI 00078</text>
    <text x="512" y="28" font-family="'Press Start 2P', monospace" font-size="16" fill="#535353">0</text>
    <text x="524" y="28" font-family="'Press Start 2P', monospace" font-size="16" fill="#535353">0</text>
    <g>
      <animate attributeName="opacity" values="1;0" begin="13.2647s" dur="0.01s" fill="freeze"/>
      <animate attributeName="opacity" values="0;1" begin="14.4647s" dur="0.01s" fill="freeze"/>
      <animate attributeName="opacity" values="1;0" begin="25.0294s" dur="0.01s" fill="freeze"/>
      <animate attributeName="opacity" values="0;1" begin="26.2294s" dur="0.01s" fill="freeze"/>
    <text x="536" y="28" font-family="'Press Start 2P', monospace" font-size="16" fill="#535353">0
      <animate attributeName="opacity" calcMode="discrete"
        values="1;0;0;0" keyTimes="0.0;0.333333;0.666667;1.0"
        begin="1.5s" dur="35.2941s" repeatCount="0.9067" fill="freeze"/>
    </text>
    <text x="536" y="28" font-family="'Press Start 2P', monospace" font-size="16" fill="#535353">1
      <animate attributeName="opacity" calcMode="discrete"
        values="0;1;0;0" keyTimes="0.0;0.333333;0.666667;1.0"
        begin="1.5s" dur="35.2941s" repeatCount="0.9067" fill="freeze"/>
    </text>
    <text x="536" y="28" font-family="'Press Start 2P', monospace" font-size="16" fill="#535353">2
      <animate attributeName="opacity" calcMode="discrete"
        values="0;0;1;0" keyTimes="0.0;0.333333;0.666667;1.0"
        begin="1.5s" dur="35.2941s" repeatCount="0.9067" fill="freeze"/>
    </text>
    <text x="548" y="28" font-family="'Press Start 2P', monospace" font-size="16" fill="#535353">0
      <animate attributeName="opacity" calcMode="discrete"
        values="1;0;0;0;0;0;0;0;0;0;0" keyTimes="0.0;0.1;0.2;0.3;0.4;0.5;0.6;0.7;0.8;0.9;1.0"
        begin="1.5s" dur="11.7647s" repeatCount="2.72" fill="freeze"/>
    </text>
    <text x="548" y="28" font-family="'Press Start 2P', monospace" font-size="16" fill="#535353">1
      <animate attributeName="opacity" calcMode="discrete"
        values="0;1;0;0;0;0;0;0;0;0;0" keyTimes="0.0;0.1;0.2;0.3;0.4;0.5;0.6;0.7;0.8;0.9;1.0"
        begin="1.5s" dur="11.7647s" repeatCount="2.72" fill="freeze"/>
    </text>
    <text x="548" y="28" font-family="'Press Start 2P', monospace" font-size="16" fill="#535353">2
      <animate attributeName="opacity" calcMode="discrete"
        values="0;0;1;0;0;0;0;0;0;0;0" keyTimes="0.0;0.1;0.2;0.3;0.4;0.5;0.6;0.7;0.8;0.9;1.0"
        begin="1.5s" dur="11.7647s" repeatCount="2.72" fill="freeze"/>
    </text>
    <text x="548" y="28" font-family="'Press Start 2P', monospace" font-size="16" fill="#535353">3
      <animate attributeName="opacity" calcMode="discrete"
        values="0;0;0;1;0;0;0;0;0;0;0" keyTimes="0.0;0.1;0.2;0.3;0.4;0.5;0.6;0.7;0.8;0.9;1.0"
        begin="1.5s" dur="11.7647s" repeatCount="2.72" fill="freeze"/>
    </text>
    <text x="548" y="28" font-family="'Press Start 2P', monospace" font-size="16" fill="#535353">4
      <animate attributeName="opacity" calcMode="discrete"
        values="0;0;0;0;1;0;0;0;0;0;0" keyTimes="0.0;0.1;0.2;0.3;0.4;0.5;0.6;0.7;0.8;0.9;1.0"
        begin="1.5s" dur="11.7647s" repeatCount="2.72" fill="freeze"/>
    </text>
    <text x="548" y="28" font-family="'Press Start 2P', monospace" font-size="16" fill="#535353">5
      <animate attributeName="opacity" calcMode="discrete"
        values="0;0;0;0;0;1;0;0;0;0;0" keyTimes="0.0;0.1;0.2;0.3;0.4;0.5;0.6;0.7;0.8;0.9;1.0"
        begin="1.5s" dur="11.7647s" repeatCount="2.72" fill="freeze"/>
    </text>
    <text x="548" y="28" font-family="'Press Start 2P', monospace" font-size="16" fill="#535353">6
      <animate attributeName="opacity" calcMode="discrete"
        values="0;0;0;0;0;0;1;0;0;0;0" keyTimes="0.0;0.1;0.2;0.3;0.4;0.5;0.6;0.7;0.8;0.9;1.0"
        begin="1.5s" dur="11.7647s" repeatCount="2.72" fill="freeze"/>
    </text>
    <text x="548" y="28" font-family="'Press Start 2P', monospace" font-size="16" fill="#535353">7
      <animate attributeName="opacity" calcMode="discrete"
        values="0;0;0;0;0;0;0;1;0;0;0" keyTimes="0.0;0.1;0.2;0.3;0.4;0.5;0.6;0.7;0.8;0.9;1.0"
        begin="1.5s" dur="11.7647s" repeatCount="2.72" fill="freeze"/>
    </text>
    <text x="548" y="28" font-family="'Press Start 2P', monospace" font-size="16" fill="#535353">8
      <animate attributeName="opacity" calcMode="discrete"
        values="0;0;0;0;0;0;0;0;1;0;0" keyTimes="0.0;0.1;0.2;0.3;0.4;0.5;0.6;0.7;0.8;0.9;1.0"
        begin="1.5s" dur="11.7647s" repeatCount="2.72" fill="freeze"/>
    </text>
    <text x="548" y="28" font-family="'Press Start 2P', monospace" font-size="16" fill="#535353">9
      <animate attributeName="opacity" calcMode="discrete"
        values="0;0;0;0;0;0;0;0;0;1;0" keyTimes="0.0;0.1;0.2;0.3;0.4;0.5;0.6;0.7;0.8;0.9;1.0"
        begin="1.5s" dur="11.7647s" repeatCount="2.72" fill="freeze"/>
    </text>
    <text x="560" y="28" font-family="'Press Start 2P', monospace" font-size="16" fill="#535353">0
      <animate attributeName="opacity" calcMode="discrete"
        values="1;0;0;0;0;0;0;0;0;0;0" keyTimes="0.0;0.1;0.2;0.3;0.4;0.5;0.6;0.7;0.8;0.9;1.0"
        begin="1.5s" dur="1.1765s" repeatCount="27.1993" fill="freeze"/>
    </text>
    <text x="560" y="28" font-family="'Press Start 2P', monospace" font-size="16" fill="#535353">1
      <animate attributeName="opacity" calcMode="discrete"
        values="0;1;0;0;0;0;0;0;0;0;0" keyTimes="0.0;0.1;0.2;0.3;0.4;0.5;0.6;0.7;0.8;0.9;1.0"
        begin="1.5s" dur="1.1765s" repeatCount="27.1993" fill="freeze"/>
    </text>
    <text x="560" y="28" font-family="'Press Start 2P', monospace" font-size="16" fill="#535353">2
      <animate attributeName="opacity" calcMode="discrete"
        values="0;0;1;0;0;0;0;0;0;0;0" keyTimes="0.0;0.1;0.2;0.3;0.4;0.5;0.6;0.7;0.8;0.9;1.0"
        begin="1.5s" dur="1.1765s" repeatCount="27.1993" fill="freeze"/>
    </text>
    <text x="560" y="28" font-family="'Press Start 2P', monospace" font-size="16" fill="#535353">3
      <animate attributeName="opacity" calcMode="discrete"
        values="0;0;0;1;0;0;0;0;0;0;0" keyTimes="0.0;0.1;0.2;0.3;0.4;0.5;0.6;0.7;0.8;0.9;1.0"
        begin="1.5s" dur="1.1765s" repeatCount="27.1993" fill="freeze"/>
    </text>
    <text x="560" y="28" font-family="'Press Start 2P', monospace" font-size="16" fill="#535353">4
      <animate attributeName="opacity" calcMode="discrete"
        values="0;0;0;0;1;0;0;0;0;0;0" keyTimes="0.0;0.1;0.2;0.3;0.4;0.5;0.6;0.7;0.8;0.9;1.0"
        begin="1.5s" dur="1.1765s" repeatCount="27.1993" fill="freeze"/>
    </text>
    <text x="560" y="28" font-family="'Press Start 2P', monospace" font-size="16" fill="#535353">5
      <animate attributeName="opacity" calcMode="discrete"
        values="0;0;0;0;0;1;0;0;0;0;0" keyTimes="0.0;0.1;0.2;0.3;0.4;0.5;0.6;0.7;0.8;0.9;1.0"
        begin="1.5s" dur="1.1765s" repeatCount="27.1993" fill="freeze"/>
    </text>
    <text x="560" y="28" font-family="'Press Start 2P', monospace" font-size="16" fill="#535353">6
      <animate attributeName="opacity" calcMode="discrete"
        values="0;0;0;0;0;0;1;0;0;0;0" keyTimes="0.0;0.1;0.2;0.3;0.4;0.5;0.6;0.7;0.8;0.9;1.0"
        begin="1.5s" dur="1.1765s" repeatCount="27.1993" fill="freeze"/>
    </text>
    <text x="560" y="28" font-family="'Press Start 2P', monospace" font-size="16" fill="#535353">7
      <animate attributeName="opacity" calcMode="discrete"
        values="0;0;0;0;0;0;0;1;0;0;0" keyTimes="0.0;0.1;0.2;0.3;0.4;0.5;0.6;0.7;0.8;0.9;1.0"
        begin="1.5s" dur="1.1765s" repeatCount="27.1993" fill="freeze"/>
    </text>
    <text x="560" y="28" font-family="'Press Start 2P', monospace" font-size="16" fill="#535353">8
      <animate attributeName="opacity" calcMode="discrete"
        values="0;0;0;0;0;0;0;0;1;0;0" keyTimes="0.0;0.1;0.2;0.3;0.4;0.5;0.6;0.7;0.8;0.9;1.0"
        begin="1.5s" dur="1.1765s" repeatCount="27.1993" fill="freeze"/>
    </text>
    <text x="560" y="28" font-family="'Press Start 2P', monospace" font-size="16" fill="#535353">9
      <animate attributeName="opacity" calcMode="discrete"
        values="0;0;0;0;0;0;0;0;0;1;0" keyTimes="0.0;0.1;0.2;0.3;0.4;0.5;0.6;0.7;0.8;0.9;1.0"
        begin="1.5s" dur="1.1765s" repeatCount="27.1993" fill="freeze"/>
    </text>
    </g>
    <text x="536" y="28" font-family="'Press Start 2P', monospace" font-size="16" fill="#535353" opacity="0">100
      <animate attributeName="opacity" calcMode="discrete" values="0;1;0;1;0" begin="13.2647s" dur="1.2s" fill="freeze"/>
    </text>
    <text x="536" y="28" font-family="'Press Start 2P', monospace" font-size="16" fill="#535353" opacity="0">200
      <animate attributeName="opacity" calcMode="discrete" values="0;1;0;1;0" begin="25.0294s" dur="1.2s" fill="freeze"/>
    </text>
  </g>

  <g transform="translate(0,20)">
  <rect x="0" y="96" width="600" height="24" fill="url(#groundTexture)"/>
  <rect x="0" y="110" width="600" height="10" fill="url(#belowGroundLines)"/>
  <!-- clouds -->
  <g fill="none" stroke="#c9c9c9" stroke-width="2" stroke-linecap="round">
    <g transform="translate(500,35)">
      <path d="M0 0h40M8 -6h10M20 -6h10"/>
      <animateTransform attributeName="transform" type="translate" from="600,35" to="-80,35" begin="1.5s" dur="8.0214s" repeatCount="3.9893" fill="freeze"/>
    </g>
    <g transform="translate(300,50)">
      <path d="M0 0h30M6 -5h8M15 -5h8"/>
      <animateTransform attributeName="transform" type="translate" from="380,50" to="-80,50" begin="-2.5s" dur="8.0214s" repeatCount="3.9893" fill="freeze"/>
    </g>
  </g>

  <!-- birds: two hand-drawn wing frames, alternated fast to flap; three heights, staggered arrival -->
  <g fill="#535353">
    <!-- high -->
    <g transform="translate(600,20)">
      <animateTransform attributeName="transform" type="translate"
        values="660,20; 660,20; 576.39,20; 492.16,20; 407.31,20; 321.83,20; 235.73,20; 149.0,20; 61.65,20; -26.32,20; -26.32,20"
        keyTimes="0.0;0.636901;0.656642;0.676383;0.696124;0.715865;0.735606;0.755347;0.775088;0.794829;1.0"
        begin="1.5s" dur="8.9127s" repeatCount="3.5904" fill="freeze"/>
      <g transform="scale(0.95)">
        <g>
          <g transform="scale(0.2804,0.2804) translate(-47,-53.9375)">
            <path d="M0 0 C2.875 -0.125 2.875 -0.125 6 0 C8 2 8 2 8.125 4.625 C8.08375 5.40875 8.0425 6.1925 8 7 C8.99 7.33 9.98 7.66 11 8 C11 9.98 11 11.96 11 14 C12.46759766 13.98259766 12.46759766 13.98259766 13.96484375 13.96484375 C21.0552013 13.9160409 27.96459222 14.01257435 35 15 C35.495 16.485 35.495 16.485 36 18 C38.00016466 19.20882096 38.00016466 19.20882096 40 20 C40 20.66 40 21.32 40 22 C41.02480469 21.98839844 42.04960938 21.97679688 43.10546875 21.96484375 C44.466144 21.95545978 45.82682124 21.94636023 47.1875 21.9375 C47.86103516 21.92912109 48.53457031 21.92074219 49.22851562 21.91210938 C52.95434131 21.89393462 56.3788042 22.10700608 60 23 C60 24.32 60 25.64 60 27 C56.7 27 53.4 27 50 27 C50 27.66 50 28.32 50 29 C51.98 29.33 53.96 29.66 56 30 C56 31.32 56 32.64 56 34 C55.06027344 34.18175781 55.06027344 34.18175781 54.1015625 34.3671875 C53.28429687 34.53476562 52.46703125 34.70234375 51.625 34.875 C50.81289062 35.03742187 50.00078125 35.19984375 49.1640625 35.3671875 C46.81326077 35.86658932 46.81326077 35.86658932 45 38 C42.25514407 38.14507695 39.61519457 38.18652423 36.875 38.125 C36.12089844 38.11597656 35.36679687 38.10695312 34.58984375 38.09765625 C32.72642746 38.0740687 30.86317407 38.03819719 29 38 C28.81244141 38.92039062 28.81244141 38.92039062 28.62109375 39.859375 C27.78135764 42.75355983 26.2690106 44.07477888 24 46 C23.34 46 22.68 46 22 46 C22 47.98 22 49.96 22 52 C21.01 52.33 20.02 52.66 19 53 C18.34 53.99 17.68 54.98 17 56 C15.68 55.67 14.36 55.34 13 55 C11.79515278 49.36473035 11.8870357 43.85463885 11.9375 38.125 C11.94201172 37.15046875 11.94652344 36.1759375 11.95117188 35.171875 C11.96289094 32.78118566 11.97929781 30.3906256 12 28 C11.01 27.67 10.02 27.34 9 27 C9 26.01 9 25.02 9 24 C7.68 23.67 6.36 23.34 5 23 C5 22.34 5 21.68 5 21 C-1.93 20.67 -8.86 20.34 -16 20 C-15.67 18.35 -15.34 16.7 -15 15 C-14.01 15 -13.02 15 -12 15 C-11.67 13.68 -11.34 12.36 -11 11 C-10.34 11 -9.68 11 -9 11 C-8.67 10.01 -8.34 9.02 -8 8 C-6.0625 5.8125 -6.0625 5.8125 -4 4 C-3.34 4 -2.68 4 -2 4 C-1.34 2.68 -0.68 1.36 0 0 Z " fill="#575757" transform="translate(25,26)"/>
<path d="M0 0 C2.875 -0.125 2.875 -0.125 6 0 C8 2 8 2 8.125 4.625 C8.08375 5.40875 8.0425 6.1925 8 7 C8.99 7.33 9.98 7.66 11 8 C11 9.98 11 11.96 11 14 C12.46759766 13.98259766 12.46759766 13.98259766 13.96484375 13.96484375 C21.0552013 13.9160409 27.96459222 14.01257435 35 15 C35.495 16.485 35.495 16.485 36 18 C38.00016466 19.20882096 38.00016466 19.20882096 40 20 C40 20.66 40 21.32 40 22 C41.02480469 21.98839844 42.04960938 21.97679688 43.10546875 21.96484375 C44.466144 21.95545978 45.82682124 21.94636023 47.1875 21.9375 C47.86103516 21.92912109 48.53457031 21.92074219 49.22851562 21.91210938 C52.95434131 21.89393462 56.3788042 22.10700608 60 23 C60 24.32 60 25.64 60 27 C56.7 27 53.4 27 50 27 C50 27.66 50 28.32 50 29 C51.98 29.33 53.96 29.66 56 30 C56 31.32 56 32.64 56 34 C55.37351563 34.12117188 54.74703125 34.24234375 54.1015625 34.3671875 C52.87566406 34.61855469 52.87566406 34.61855469 51.625 34.875 C50.40683594 35.11863281 50.40683594 35.11863281 49.1640625 35.3671875 C46.81326077 35.86658932 46.81326077 35.86658932 45 38 C42.25514407 38.14507695 39.61519457 38.18652423 36.875 38.125 C36.12089844 38.11597656 35.36679687 38.10695312 34.58984375 38.09765625 C32.72642746 38.0740687 30.86317407 38.03819719 29 38 C28.81244141 38.92039062 28.81244141 38.92039062 28.62109375 39.859375 C27.78135764 42.75355983 26.2690106 44.07477888 24 46 C23.34 46 22.68 46 22 46 C22 47.98 22 49.96 22 52 C20.515 52.495 20.515 52.495 19 53 C18.34 53.99 17.68 54.98 17 56 C15.68 55.67 14.36 55.34 13 55 C11.79515278 49.36473035 11.8870357 43.85463885 11.9375 38.125 C11.94201172 37.15046875 11.94652344 36.1759375 11.95117188 35.171875 C11.96289094 32.78118566 11.97929781 30.3906256 12 28 C11.34 27.67 10.68 27.34 10 27 C11.32 27 12.64 27 14 27 C14 35.91 14 44.82 14 54 C14.66 54 15.32 54 16 54 C16.33 53.01 16.66 52.02 17 51 C17.99 51 18.98 51 20 51 C20 48.69 20 46.38 20 44 C21.32 44 22.64 44 24 44 C24 43.01 24 42.02 24 41 C24.99 41 25.98 41 27 41 C27.33 39.35 27.66 37.7 28 36 C33.28 36 38.56 36 44 36 C44.33 34.68 44.66 33.36 45 32 C45.99 32 46.98 32 48 32 C47.505 31.01 47.505 31.01 47 30 C46.960008 28.00039988 46.95653201 25.99952758 47 24 C44.03 24 41.06 24 38 24 C38 22.68 38 21.36 38 20 C36.68 19.67 35.36 19.34 34 19 C34 18.34 34 17.68 34 17 C25.75 17 17.5 17 9 17 C9 14.36 9 11.72 9 9 C8.01 9 7.02 9 6 9 C6 6.69 6 4.38 6 2 C4.02 2 2.04 2 0 2 C0 3.32 0 4.64 0 6 C-0.99 6 -1.98 6 -3 6 C-3 6.99 -3 7.98 -3 9 C-4.65 9 -6.3 9 -8 9 C-6.71937515 7.2925002 -5.38232443 5.62626404 -4 4 C-3.34 4 -2.68 4 -2 4 C-1.34 2.68 -0.68 1.36 0 0 Z " fill="#858585" transform="translate(25,26)"/>
<path d="M0 0 C1.32 0 2.64 0 4 0 C4 8.91 4 17.82 4 27 C4.66 27 5.32 27 6 27 C6.33 26.01 6.66 25.02 7 24 C7.99 24 8.98 24 10 24 C10 21.69 10 19.38 10 17 C11.32 17 12.64 17 14 17 C14 16.01 14 15.02 14 14 C14.99 14 15.98 14 17 14 C17 12.68 17 11.36 17 10 C22.94 10 28.88 10 35 10 C35 10.33 35 10.66 35 11 C29.72 11 24.44 11 19 11 C18.67 12.32 18.34 13.64 18 15 C16.0625 17.25 16.0625 17.25 14 19 C13.34 19 12.68 19 12 19 C12 20.98 12 22.96 12 25 C11.01 25.33 10.02 25.66 9 26 C8.34 26.99 7.68 27.98 7 29 C5.68 28.67 4.36 28.34 3 28 C1.79515278 22.36473035 1.8870357 16.85463885 1.9375 11.125 C1.94201172 10.15046875 1.94652344 9.1759375 1.95117188 8.171875 C1.96289094 5.78118566 1.97929781 3.3906256 2 1 C1.34 0.67 0.68 0.34 0 0 Z " fill="#C9C9C9" transform="translate(35,53)"/>
<path d="M0 0 C2.875 -0.125 2.875 -0.125 6 0 C8 2 8 2 8.125 4.625 C8.08375 5.40875 8.0425 6.1925 8 7 C8.99 7.33 9.98 7.66 11 8 C11 9.98 11 11.96 11 14 C12.46759766 13.98259766 12.46759766 13.98259766 13.96484375 13.96484375 C21.0552013 13.9160409 27.96459222 14.01257435 35 15 C35 15.33 35 15.66 35 16 C26.75 16 18.5 16 10 16 C10 13.69 10 11.38 10 9 C8.68 9 7.36 9 6 9 C6 6.69 6 4.38 6 2 C4.02 2 2.04 2 0 2 C0 3.32 0 4.64 0 6 C-0.99 6 -1.98 6 -3 6 C-3 6.99 -3 7.98 -3 9 C-4.65 9 -6.3 9 -8 9 C-6.71937515 7.2925002 -5.38232443 5.62626404 -4 4 C-3.34 4 -2.68 4 -2 4 C-1.34 2.68 -0.68 1.36 0 0 Z " fill="#DBDBDB" transform="translate(25,26)"/>
<path d="M0 0 C0.33 0 0.66 0 1 0 C1 2.31 1 4.62 1 7 C9.58 7 18.16 7 27 7 C27 7.66 27 8.32 27 9 C28.32 9.66 29.64 10.32 31 11 C31 11.66 31 12.32 31 13 C35.95 13 40.9 13 46 13 C46 13.33 46 13.66 46 14 C40.39 14 34.78 14 29 14 C29 13.01 29 12.02 29 11 C27.68 10.67 26.36 10.34 25 10 C25 9.34 25 8.68 25 8 C16.75 8 8.5 8 0 8 C0 5.36 0 2.72 0 0 Z " fill="#A0A0A0" transform="translate(34,35)"/>
<path d="M0 0 C0.33 1.32 0.66 2.64 1 4 C0.34 4 -0.32 4 -1 4 C-1 4.99 -1 5.98 -1 7 C-2.32 7.33 -3.64 7.66 -5 8 C-5 8.66 -5 9.32 -5 10 C1.6 10 8.2 10 15 10 C15.33 11.32 15.66 12.64 16 14 C16.99 14 17.98 14 19 14 C18.67 15.32 18.34 16.64 18 18 C18 17.01 18 16.02 18 15 C16.68 14.67 15.36 14.34 14 14 C14 13.34 14 12.68 14 12 C7.07 11.67 0.14 11.34 -7 11 C-6.67 9.35 -6.34 7.7 -6 6 C-5.01 6 -4.02 6 -3 6 C-2.67 4.68 -2.34 3.36 -2 2 C-1.34 2 -0.68 2 0 2 C0 1.34 0 0.68 0 0 Z " fill="#C3C3C3" transform="translate(16,35)"/>
<path d="M0 0 C1.99954746 -0.04254356 4.00041636 -0.04080783 6 0 C7 1 7 1 7.09765625 2.84765625 C7.04882812 5.92382812 7.04882812 5.92382812 7 9 C6.67 9 6.34 9 6 9 C6 6.69 6 4.38 6 2 C4.02 2 2.04 2 0 2 C0 3.32 0 4.64 0 6 C-0.99 6 -1.98 6 -3 6 C-3 6.99 -3 7.98 -3 9 C-4.65 9 -6.3 9 -8 9 C-6.71937515 7.2925002 -5.38232443 5.62626404 -4 4 C-3.34 4 -2.68 4 -2 4 C-1.34 2.68 -0.68 1.36 0 0 Z " fill="#BBBBBB" transform="translate(25,26)"/>
<path d="M0 0 C0.33 1.32 0.66 2.64 1 4 C0.34 4 -0.32 4 -1 4 C-1 4.99 -1 5.98 -1 7 C-1.639375 7.12375 -2.27875 7.2475 -2.9375 7.375 C-3.9584375 7.684375 -3.9584375 7.684375 -5 8 C-5.33 8.66 -5.66 9.32 -6 10 C-6 8.68 -6 7.36 -6 6 C-5.01 6 -4.02 6 -3 6 C-2.67 4.68 -2.34 3.36 -2 2 C-1.34 2 -0.68 2 0 2 C0 1.34 0 0.68 0 0 Z " fill="#ACACAC" transform="translate(16,35)"/>
            <animate attributeName="opacity" calcMode="discrete" values="1;0" keyTimes="0;0.5" begin="1.5s" dur="0.5929s" repeatCount="53.972" fill="freeze"/>
          </g>
          <g transform="scale(0.2804,0.2804) translate(-66.5,-34)">
            <path d="M0 0 C1.67542976 0.28604898 3.34385343 0.61781233 5 1 C5 1.99 5 2.98 5 4 C6.32 4.33 7.64 4.66 9 5 C9 5.66 9 6.32 9 7 C9.99 7.33 10.98 7.66 12 8 C14.1875 9.9375 14.1875 9.9375 16 12 C16 12.66 16 13.32 16 14 C16.99 14.33 17.98 14.66 19 15 C21.1875 16.9375 21.1875 16.9375 23 19 C23 19.66 23 20.32 23 21 C24.32 21.66 25.64 22.32 27 23 C27 24.98 27 26.96 27 29 C27.99 29 28.98 29 30 29 C30 29.99 30 30.98 30 32 C36.6 32 43.2 32 50 32 C50.495 34.475 50.495 34.475 51 37 C50 38 50 38 47.93359375 38.09765625 C47.10988281 38.08605469 46.28617187 38.07445312 45.4375 38.0625 C44.61121094 38.05347656 43.78492187 38.04445312 42.93359375 38.03515625 C42.29550781 38.02355469 41.65742187 38.01195312 41 38 C41 38.66 41 39.32 41 40 C42.98 40 44.96 40 47 40 C47.5625 41.9375 47.5625 41.9375 48 44 C47 45 47 45 44.71484375 45.09765625 C43.79832031 45.08605469 42.88179688 45.07445312 41.9375 45.0625 C41.01839844 45.05347656 40.09929687 45.04445312 39.15234375 45.03515625 C38.44207031 45.02355469 37.73179688 45.01195312 37 45 C36.67 46.32 36.34 47.64 36 49 C31.9380443 49.17456339 27.87705413 49.2809442 23.8125 49.375 C22.66201172 49.42527344 21.51152344 49.47554687 20.32617188 49.52734375 C11.94355008 49.67312848 11.94355008 49.67312848 9.18896484 47.70800781 C7.88671875 46.1015625 7.88671875 46.1015625 6 43 C5.01 42.34 4.02 41.68 3 41 C3 40.01 3 39.02 3 38 C1.68 37.67 0.36 37.34 -1 37 C-1 36.34 -1 35.68 -1 35 C-2.32 34.34 -3.64 33.68 -5 33 C-5 32.34 -5 31.68 -5 31 C-11.6 31 -18.2 31 -25 31 C-25.33 29.35 -25.66 27.7 -26 26 C-24.68 25.67 -23.36 25.34 -22 25 C-21.67 23.68 -21.34 22.36 -21 21 C-20.34 21 -19.68 21 -19 21 C-18.67 20.01 -18.34 19.02 -18 18 C-16.0625 15.8125 -16.0625 15.8125 -14 14 C-13.34 14 -12.68 14 -12 14 C-11.67 13.01 -11.34 12.02 -11 11 C-4.84765625 10.90234375 -4.84765625 10.90234375 -3 11 C-2 12 -2 12 -1.9375 15.0625 C-1.958125 16.031875 -1.97875 17.00125 -2 18 C-1.01 18.33 -0.02 18.66 1 19 C1 20.98 1 22.96 1 25 C1.66 25 2.32 25 3 25 C3 21.04 3 17.08 3 13 C1.68 12.67 0.36 12.34 -1 12 C-1.02687279 10.18757948 -1.04633715 8.37504767 -1.0625 6.5625 C-1.07410156 5.55316406 -1.08570312 4.54382813 -1.09765625 3.50390625 C-1 1 -1 1 0 0 Z " fill="#5B5B5B" transform="translate(45,5)"/>
<path d="M0 0 C43.89 0 87.78 0 133 0 C133 0.66 133 1.32 133 2 C89.11 2 45.22 2 0 2 C0 1.34 0 0.68 0 0 Z " fill="#A2A2A2" transform="translate(0,61)"/>
<path d="M0 0 C1.32 0 2.64 0 4 0 C4 0.99 4 1.98 4 3 C5.32 3.33 6.64 3.66 8 4 C8 4.99 8 5.98 8 7 C8.99 7 9.98 7 11 7 C11 7.99 11 8.98 11 10 C18.92 10 26.84 10 35 10 C35 9.01 35 8.02 35 7 C38.63 7 42.26 7 46 7 C46 6.01 46 5.02 46 4 C44.02 4 42.04 4 40 4 C40 2.68 40 1.36 40 0 C43.3 0 46.6 0 50 0 C50 0.33 50 0.66 50 1 C47.03 1 44.06 1 41 1 C41 1.66 41 2.32 41 3 C42.98 3 44.96 3 47 3 C47.5625 4.9375 47.5625 4.9375 48 7 C47 8 47 8 44.71484375 8.09765625 C43.79832031 8.08605469 42.88179687 8.07445312 41.9375 8.0625 C41.01839844 8.05347656 40.09929687 8.04445313 39.15234375 8.03515625 C38.44207031 8.02355469 37.73179688 8.01195312 37 8 C36.67 9.32 36.34 10.64 36 12 C31.9380443 12.17456339 27.87705413 12.2809442 23.8125 12.375 C22.66201172 12.42527344 21.51152344 12.47554687 20.32617188 12.52734375 C11.94355008 12.67312848 11.94355008 12.67312848 9.18896484 10.70800781 C7.88671875 9.1015625 7.88671875 9.1015625 6 6 C5.01 5.34 4.02 4.68 3 4 C3 3.01 3 2.02 3 1 C2.01 0.67 1.02 0.34 0 0 Z " fill="#C2C2C2" transform="translate(45,42)"/>
<path d="M0 0 C1.67542976 0.28604898 3.34385343 0.61781233 5 1 C5 1.99 5 2.98 5 4 C6.32 4.33 7.64 4.66 9 5 C9 5.66 9 6.32 9 7 C9.99 7.33 10.98 7.66 12 8 C13.6875 10.0625 13.6875 10.0625 15 12 C13.68 12 12.36 12 11 12 C11 11.01 11 10.02 11 9 C9.68 9 8.36 9 7 9 C7 7.68 7 6.36 7 5 C6.01 5 5.02 5 4 5 C4 4.01 4 3.02 4 2 C3.01 2 2.02 2 1 2 C1 5.3 1 8.6 1 12 C1.99 12 2.98 12 4 12 C4 16.95 4 21.9 4 27 C2.68 27 1.36 27 0 27 C0 24.69 0 22.38 0 20 C-0.99 20 -1.98 20 -3 20 C-3.33 17.69 -3.66 15.38 -4 13 C-6.31 12.67 -8.62 12.34 -11 12 C-11 11.67 -11 11.34 -11 11 C-4.84765625 10.90234375 -4.84765625 10.90234375 -3 11 C-2 12 -2 12 -1.9375 15.0625 C-1.958125 16.031875 -1.97875 17.00125 -2 18 C-1.01 18.33 -0.02 18.66 1 19 C1 20.98 1 22.96 1 25 C1.66 25 2.32 25 3 25 C3 21.04 3 17.08 3 13 C1.68 12.67 0.36 12.34 -1 12 C-1.02687279 10.18757948 -1.04633715 8.37504767 -1.0625 6.5625 C-1.07410156 5.55316406 -1.08570313 4.54382813 -1.09765625 3.50390625 C-1 1 -1 1 0 0 Z " fill="#C2C2C2" transform="translate(45,5)"/>
<path d="M0 0 C0.33 0.66 0.66 1.32 1 2 C1.99 2.33 2.98 2.66 4 3 C6.1875 4.9375 6.1875 4.9375 8 7 C8 7.66 8 8.32 8 9 C9.32 9.66 10.64 10.32 12 11 C12 12.98 12 14.96 12 17 C12.99 17 13.98 17 15 17 C15 17.99 15 18.98 15 20 C21.6 20 28.2 20 35 20 C35.495 22.475 35.495 22.475 36 25 C35.505 23.515 35.505 23.515 35 22 C28.07 22 21.14 22 14 22 C13.67 21.01 13.34 20.02 13 19 C12.01 19 11.02 19 10 19 C10 16.36 10 13.72 10 11 C9.01 11 8.02 11 7 11 C6.67 10.01 6.34 9.02 6 8 C5.01 7.67 4.02 7.34 3 7 C3 6.01 3 5.02 3 4 C2.01 4 1.02 4 0 4 C0 2.68 0 1.36 0 0 Z " fill="#D5D5D5" transform="translate(60,17)"/>
<path d="M0 0 C0.33 1.32 0.66 2.64 1 4 C0.01 4 -0.98 4 -2 4 C-2.33 5.32 -2.66 6.64 -3 8 C-3.66 8 -4.32 8 -5 8 C-5 8.99 -5 9.98 -5 11 C-6.32 11 -7.64 11 -9 11 C-9 12.32 -9 13.64 -9 15 C-9.99 15 -10.98 15 -12 15 C-12 15.99 -12 16.98 -12 18 C-5.07 18 1.86 18 9 18 C9 18.99 9 19.98 9 21 C9.99 21 10.98 21 12 21 C11.67 22.32 11.34 23.64 11 25 C11 24.34 11 23.68 11 23 C9.68 22.34 8.36 21.68 7 21 C7 20.34 7 19.68 7 19 C0.4 19 -6.2 19 -13 19 C-13.33 17.35 -13.66 15.7 -14 14 C-12.68 13.67 -11.36 13.34 -10 13 C-9.67 11.68 -9.34 10.36 -9 9 C-8.34 9 -7.68 9 -7 9 C-6.67 8.01 -6.34 7.02 -6 6 C-4.0625 3.8125 -4.0625 3.8125 -2 2 C-1.34 2 -0.68 2 0 2 C0 1.34 0 0.68 0 0 Z " fill="#D7D7D7" transform="translate(33,17)"/>
<path d="M0 0 C1.67542976 0.28604898 3.34385343 0.61781233 5 1 C5 1.99 5 2.98 5 4 C6.32 4.33 7.64 4.66 9 5 C9 5.66 9 6.32 9 7 C9.99 7.33 10.98 7.66 12 8 C13.6875 10.0625 13.6875 10.0625 15 12 C13.68 12 12.36 12 11 12 C11 11.01 11 10.02 11 9 C9.68 9 8.36 9 7 9 C7 7.68 7 6.36 7 5 C6.01 5 5.02 5 4 5 C4 4.01 4 3.02 4 2 C2.68 2 1.36 2 0 2 C0 5.3 0 8.6 0 12 C-0.33 12 -0.66 12 -1 12 C-1.02687279 10.18757948 -1.04633715 8.37504767 -1.0625 6.5625 C-1.07410156 5.55316406 -1.08570313 4.54382813 -1.09765625 3.50390625 C-1 1 -1 1 0 0 Z " fill="#DADADA" transform="translate(45,5)"/>
<path d="M0 0 C1.32 0 2.64 0 4 0 C4 0.99 4 1.98 4 3 C5.32 3.33 6.64 3.66 8 4 C8 4.99 8 5.98 8 7 C8.99 7 9.98 7 11 7 C10.67 8.32 10.34 9.64 10 11 C9.401875 10.21625 8.80375 9.4325 8.1875 8.625 C6.08914751 5.85425677 6.08914751 5.85425677 3 4 C3 3.01 3 2.02 3 1 C2.01 0.67 1.02 0.34 0 0 Z " fill="#CBCBCB" transform="translate(45,42)"/>
<path d="M0 0 C0.33 1.32 0.66 2.64 1 4 C0.01 4 -0.98 4 -2 4 C-2.33 5.32 -2.66 6.64 -3 8 C-3.66 8 -4.32 8 -5 8 C-5 8.99 -5 9.98 -5 11 C-5.99 10.67 -6.98 10.34 -8 10 C-7.34 10 -6.68 10 -6 10 C-6 8.68 -6 7.36 -6 6 C-4.125 3.75 -4.125 3.75 -2 2 C-1.34 2 -0.68 2 0 2 C0 1.34 0 0.68 0 0 Z " fill="#D0D0D0" transform="translate(33,17)"/>
            <animate attributeName="opacity" calcMode="discrete" values="0;1" keyTimes="0;0.5" begin="1.5s" dur="0.5929s" repeatCount="53.972" fill="freeze"/>
          </g>
        </g>
      </g>
    </g>
    <!-- body height -->
    <g transform="translate(600,68)">
      <animateTransform attributeName="transform" type="translate"
        values="660,68; 660,68; 578.54,68; 496.11,68; 412.71,68; 328.35,68; 243.02,68; 156.72,68; 69.46,68; -18.78,68; -18.78,68"
        keyTimes="0.0;0.058222;0.082809;0.107397;0.131984;0.156572;0.181159;0.205747;0.230334;0.254922;1.0"
        begin="1.5s" dur="8.9127s" repeatCount="3.5904" fill="freeze"/>
      <g transform="scale(0.95)">
        <g>
          <g transform="scale(0.2804,0.2804) translate(-47,-53.9375)">
            <path d="M0 0 C2.875 -0.125 2.875 -0.125 6 0 C8 2 8 2 8.125 4.625 C8.08375 5.40875 8.0425 6.1925 8 7 C8.99 7.33 9.98 7.66 11 8 C11 9.98 11 11.96 11 14 C12.46759766 13.98259766 12.46759766 13.98259766 13.96484375 13.96484375 C21.0552013 13.9160409 27.96459222 14.01257435 35 15 C35.495 16.485 35.495 16.485 36 18 C38.00016466 19.20882096 38.00016466 19.20882096 40 20 C40 20.66 40 21.32 40 22 C41.02480469 21.98839844 42.04960938 21.97679688 43.10546875 21.96484375 C44.466144 21.95545978 45.82682124 21.94636023 47.1875 21.9375 C47.86103516 21.92912109 48.53457031 21.92074219 49.22851562 21.91210938 C52.95434131 21.89393462 56.3788042 22.10700608 60 23 C60 24.32 60 25.64 60 27 C56.7 27 53.4 27 50 27 C50 27.66 50 28.32 50 29 C51.98 29.33 53.96 29.66 56 30 C56 31.32 56 32.64 56 34 C55.06027344 34.18175781 55.06027344 34.18175781 54.1015625 34.3671875 C53.28429687 34.53476562 52.46703125 34.70234375 51.625 34.875 C50.81289062 35.03742187 50.00078125 35.19984375 49.1640625 35.3671875 C46.81326077 35.86658932 46.81326077 35.86658932 45 38 C42.25514407 38.14507695 39.61519457 38.18652423 36.875 38.125 C36.12089844 38.11597656 35.36679687 38.10695312 34.58984375 38.09765625 C32.72642746 38.0740687 30.86317407 38.03819719 29 38 C28.81244141 38.92039062 28.81244141 38.92039062 28.62109375 39.859375 C27.78135764 42.75355983 26.2690106 44.07477888 24 46 C23.34 46 22.68 46 22 46 C22 47.98 22 49.96 22 52 C21.01 52.33 20.02 52.66 19 53 C18.34 53.99 17.68 54.98 17 56 C15.68 55.67 14.36 55.34 13 55 C11.79515278 49.36473035 11.8870357 43.85463885 11.9375 38.125 C11.94201172 37.15046875 11.94652344 36.1759375 11.95117188 35.171875 C11.96289094 32.78118566 11.97929781 30.3906256 12 28 C11.01 27.67 10.02 27.34 9 27 C9 26.01 9 25.02 9 24 C7.68 23.67 6.36 23.34 5 23 C5 22.34 5 21.68 5 21 C-1.93 20.67 -8.86 20.34 -16 20 C-15.67 18.35 -15.34 16.7 -15 15 C-14.01 15 -13.02 15 -12 15 C-11.67 13.68 -11.34 12.36 -11 11 C-10.34 11 -9.68 11 -9 11 C-8.67 10.01 -8.34 9.02 -8 8 C-6.0625 5.8125 -6.0625 5.8125 -4 4 C-3.34 4 -2.68 4 -2 4 C-1.34 2.68 -0.68 1.36 0 0 Z " fill="#575757" transform="translate(25,26)"/>
<path d="M0 0 C2.875 -0.125 2.875 -0.125 6 0 C8 2 8 2 8.125 4.625 C8.08375 5.40875 8.0425 6.1925 8 7 C8.99 7.33 9.98 7.66 11 8 C11 9.98 11 11.96 11 14 C12.46759766 13.98259766 12.46759766 13.98259766 13.96484375 13.96484375 C21.0552013 13.9160409 27.96459222 14.01257435 35 15 C35.495 16.485 35.495 16.485 36 18 C38.00016466 19.20882096 38.00016466 19.20882096 40 20 C40 20.66 40 21.32 40 22 C41.02480469 21.98839844 42.04960938 21.97679688 43.10546875 21.96484375 C44.466144 21.95545978 45.82682124 21.94636023 47.1875 21.9375 C47.86103516 21.92912109 48.53457031 21.92074219 49.22851562 21.91210938 C52.95434131 21.89393462 56.3788042 22.10700608 60 23 C60 24.32 60 25.64 60 27 C56.7 27 53.4 27 50 27 C50 27.66 50 28.32 50 29 C51.98 29.33 53.96 29.66 56 30 C56 31.32 56 32.64 56 34 C55.37351563 34.12117188 54.74703125 34.24234375 54.1015625 34.3671875 C52.87566406 34.61855469 52.87566406 34.61855469 51.625 34.875 C50.40683594 35.11863281 50.40683594 35.11863281 49.1640625 35.3671875 C46.81326077 35.86658932 46.81326077 35.86658932 45 38 C42.25514407 38.14507695 39.61519457 38.18652423 36.875 38.125 C36.12089844 38.11597656 35.36679687 38.10695312 34.58984375 38.09765625 C32.72642746 38.0740687 30.86317407 38.03819719 29 38 C28.81244141 38.92039062 28.81244141 38.92039062 28.62109375 39.859375 C27.78135764 42.75355983 26.2690106 44.07477888 24 46 C23.34 46 22.68 46 22 46 C22 47.98 22 49.96 22 52 C20.515 52.495 20.515 52.495 19 53 C18.34 53.99 17.68 54.98 17 56 C15.68 55.67 14.36 55.34 13 55 C11.79515278 49.36473035 11.8870357 43.85463885 11.9375 38.125 C11.94201172 37.15046875 11.94652344 36.1759375 11.95117188 35.171875 C11.96289094 32.78118566 11.97929781 30.3906256 12 28 C11.34 27.67 10.68 27.34 10 27 C11.32 27 12.64 27 14 27 C14 35.91 14 44.82 14 54 C14.66 54 15.32 54 16 54 C16.33 53.01 16.66 52.02 17 51 C17.99 51 18.98 51 20 51 C20 48.69 20 46.38 20 44 C21.32 44 22.64 44 24 44 C24 43.01 24 42.02 24 41 C24.99 41 25.98 41 27 41 C27.33 39.35 27.66 37.7 28 36 C33.28 36 38.56 36 44 36 C44.33 34.68 44.66 33.36 45 32 C45.99 32 46.98 32 48 32 C47.505 31.01 47.505 31.01 47 30 C46.960008 28.00039988 46.95653201 25.99952758 47 24 C44.03 24 41.06 24 38 24 C38 22.68 38 21.36 38 20 C36.68 19.67 35.36 19.34 34 19 C34 18.34 34 17.68 34 17 C25.75 17 17.5 17 9 17 C9 14.36 9 11.72 9 9 C8.01 9 7.02 9 6 9 C6 6.69 6 4.38 6 2 C4.02 2 2.04 2 0 2 C0 3.32 0 4.64 0 6 C-0.99 6 -1.98 6 -3 6 C-3 6.99 -3 7.98 -3 9 C-4.65 9 -6.3 9 -8 9 C-6.71937515 7.2925002 -5.38232443 5.62626404 -4 4 C-3.34 4 -2.68 4 -2 4 C-1.34 2.68 -0.68 1.36 0 0 Z " fill="#858585" transform="translate(25,26)"/>
<path d="M0 0 C1.32 0 2.64 0 4 0 C4 8.91 4 17.82 4 27 C4.66 27 5.32 27 6 27 C6.33 26.01 6.66 25.02 7 24 C7.99 24 8.98 24 10 24 C10 21.69 10 19.38 10 17 C11.32 17 12.64 17 14 17 C14 16.01 14 15.02 14 14 C14.99 14 15.98 14 17 14 C17 12.68 17 11.36 17 10 C22.94 10 28.88 10 35 10 C35 10.33 35 10.66 35 11 C29.72 11 24.44 11 19 11 C18.67 12.32 18.34 13.64 18 15 C16.0625 17.25 16.0625 17.25 14 19 C13.34 19 12.68 19 12 19 C12 20.98 12 22.96 12 25 C11.01 25.33 10.02 25.66 9 26 C8.34 26.99 7.68 27.98 7 29 C5.68 28.67 4.36 28.34 3 28 C1.79515278 22.36473035 1.8870357 16.85463885 1.9375 11.125 C1.94201172 10.15046875 1.94652344 9.1759375 1.95117188 8.171875 C1.96289094 5.78118566 1.97929781 3.3906256 2 1 C1.34 0.67 0.68 0.34 0 0 Z " fill="#C9C9C9" transform="translate(35,53)"/>
<path d="M0 0 C2.875 -0.125 2.875 -0.125 6 0 C8 2 8 2 8.125 4.625 C8.08375 5.40875 8.0425 6.1925 8 7 C8.99 7.33 9.98 7.66 11 8 C11 9.98 11 11.96 11 14 C12.46759766 13.98259766 12.46759766 13.98259766 13.96484375 13.96484375 C21.0552013 13.9160409 27.96459222 14.01257435 35 15 C35 15.33 35 15.66 35 16 C26.75 16 18.5 16 10 16 C10 13.69 10 11.38 10 9 C8.68 9 7.36 9 6 9 C6 6.69 6 4.38 6 2 C4.02 2 2.04 2 0 2 C0 3.32 0 4.64 0 6 C-0.99 6 -1.98 6 -3 6 C-3 6.99 -3 7.98 -3 9 C-4.65 9 -6.3 9 -8 9 C-6.71937515 7.2925002 -5.38232443 5.62626404 -4 4 C-3.34 4 -2.68 4 -2 4 C-1.34 2.68 -0.68 1.36 0 0 Z " fill="#DBDBDB" transform="translate(25,26)"/>
<path d="M0 0 C0.33 0 0.66 0 1 0 C1 2.31 1 4.62 1 7 C9.58 7 18.16 7 27 7 C27 7.66 27 8.32 27 9 C28.32 9.66 29.64 10.32 31 11 C31 11.66 31 12.32 31 13 C35.95 13 40.9 13 46 13 C46 13.33 46 13.66 46 14 C40.39 14 34.78 14 29 14 C29 13.01 29 12.02 29 11 C27.68 10.67 26.36 10.34 25 10 C25 9.34 25 8.68 25 8 C16.75 8 8.5 8 0 8 C0 5.36 0 2.72 0 0 Z " fill="#A0A0A0" transform="translate(34,35)"/>
<path d="M0 0 C0.33 1.32 0.66 2.64 1 4 C0.34 4 -0.32 4 -1 4 C-1 4.99 -1 5.98 -1 7 C-2.32 7.33 -3.64 7.66 -5 8 C-5 8.66 -5 9.32 -5 10 C1.6 10 8.2 10 15 10 C15.33 11.32 15.66 12.64 16 14 C16.99 14 17.98 14 19 14 C18.67 15.32 18.34 16.64 18 18 C18 17.01 18 16.02 18 15 C16.68 14.67 15.36 14.34 14 14 C14 13.34 14 12.68 14 12 C7.07 11.67 0.14 11.34 -7 11 C-6.67 9.35 -6.34 7.7 -6 6 C-5.01 6 -4.02 6 -3 6 C-2.67 4.68 -2.34 3.36 -2 2 C-1.34 2 -0.68 2 0 2 C0 1.34 0 0.68 0 0 Z " fill="#C3C3C3" transform="translate(16,35)"/>
<path d="M0 0 C1.99954746 -0.04254356 4.00041636 -0.04080783 6 0 C7 1 7 1 7.09765625 2.84765625 C7.04882812 5.92382812 7.04882812 5.92382812 7 9 C6.67 9 6.34 9 6 9 C6 6.69 6 4.38 6 2 C4.02 2 2.04 2 0 2 C0 3.32 0 4.64 0 6 C-0.99 6 -1.98 6 -3 6 C-3 6.99 -3 7.98 -3 9 C-4.65 9 -6.3 9 -8 9 C-6.71937515 7.2925002 -5.38232443 5.62626404 -4 4 C-3.34 4 -2.68 4 -2 4 C-1.34 2.68 -0.68 1.36 0 0 Z " fill="#BBBBBB" transform="translate(25,26)"/>
<path d="M0 0 C0.33 1.32 0.66 2.64 1 4 C0.34 4 -0.32 4 -1 4 C-1 4.99 -1 5.98 -1 7 C-1.639375 7.12375 -2.27875 7.2475 -2.9375 7.375 C-3.9584375 7.684375 -3.9584375 7.684375 -5 8 C-5.33 8.66 -5.66 9.32 -6 10 C-6 8.68 -6 7.36 -6 6 C-5.01 6 -4.02 6 -3 6 C-2.67 4.68 -2.34 3.36 -2 2 C-1.34 2 -0.68 2 0 2 C0 1.34 0 0.68 0 0 Z " fill="#ACACAC" transform="translate(16,35)"/>
            <animate attributeName="opacity" calcMode="discrete" values="1;0" keyTimes="0;0.5" begin="1.5s" dur="0.5083s" repeatCount="62.9549" fill="freeze"/>
          </g>
          <g transform="scale(0.2804,0.2804) translate(-66.5,-34)">
            <path d="M0 0 C1.67542976 0.28604898 3.34385343 0.61781233 5 1 C5 1.99 5 2.98 5 4 C6.32 4.33 7.64 4.66 9 5 C9 5.66 9 6.32 9 7 C9.99 7.33 10.98 7.66 12 8 C14.1875 9.9375 14.1875 9.9375 16 12 C16 12.66 16 13.32 16 14 C16.99 14.33 17.98 14.66 19 15 C21.1875 16.9375 21.1875 16.9375 23 19 C23 19.66 23 20.32 23 21 C24.32 21.66 25.64 22.32 27 23 C27 24.98 27 26.96 27 29 C27.99 29 28.98 29 30 29 C30 29.99 30 30.98 30 32 C36.6 32 43.2 32 50 32 C50.495 34.475 50.495 34.475 51 37 C50 38 50 38 47.93359375 38.09765625 C47.10988281 38.08605469 46.28617187 38.07445312 45.4375 38.0625 C44.61121094 38.05347656 43.78492187 38.04445312 42.93359375 38.03515625 C42.29550781 38.02355469 41.65742187 38.01195312 41 38 C41 38.66 41 39.32 41 40 C42.98 40 44.96 40 47 40 C47.5625 41.9375 47.5625 41.9375 48 44 C47 45 47 45 44.71484375 45.09765625 C43.79832031 45.08605469 42.88179688 45.07445312 41.9375 45.0625 C41.01839844 45.05347656 40.09929687 45.04445312 39.15234375 45.03515625 C38.44207031 45.02355469 37.73179688 45.01195312 37 45 C36.67 46.32 36.34 47.64 36 49 C31.9380443 49.17456339 27.87705413 49.2809442 23.8125 49.375 C22.66201172 49.42527344 21.51152344 49.47554687 20.32617188 49.52734375 C11.94355008 49.67312848 11.94355008 49.67312848 9.18896484 47.70800781 C7.88671875 46.1015625 7.88671875 46.1015625 6 43 C5.01 42.34 4.02 41.68 3 41 C3 40.01 3 39.02 3 38 C1.68 37.67 0.36 37.34 -1 37 C-1 36.34 -1 35.68 -1 35 C-2.32 34.34 -3.64 33.68 -5 33 C-5 32.34 -5 31.68 -5 31 C-11.6 31 -18.2 31 -25 31 C-25.33 29.35 -25.66 27.7 -26 26 C-24.68 25.67 -23.36 25.34 -22 25 C-21.67 23.68 -21.34 22.36 -21 21 C-20.34 21 -19.68 21 -19 21 C-18.67 20.01 -18.34 19.02 -18 18 C-16.0625 15.8125 -16.0625 15.8125 -14 14 C-13.34 14 -12.68 14 -12 14 C-11.67 13.01 -11.34 12.02 -11 11 C-4.84765625 10.90234375 -4.84765625 10.90234375 -3 11 C-2 12 -2 12 -1.9375 15.0625 C-1.958125 16.031875 -1.97875 17.00125 -2 18 C-1.01 18.33 -0.02 18.66 1 19 C1 20.98 1 22.96 1 25 C1.66 25 2.32 25 3 25 C3 21.04 3 17.08 3 13 C1.68 12.67 0.36 12.34 -1 12 C-1.02687279 10.18757948 -1.04633715 8.37504767 -1.0625 6.5625 C-1.07410156 5.55316406 -1.08570312 4.54382813 -1.09765625 3.50390625 C-1 1 -1 1 0 0 Z " fill="#5B5B5B" transform="translate(45,5)"/>
<path d="M0 0 C43.89 0 87.78 0 133 0 C133 0.66 133 1.32 133 2 C89.11 2 45.22 2 0 2 C0 1.34 0 0.68 0 0 Z " fill="#A2A2A2" transform="translate(0,61)"/>
<path d="M0 0 C1.32 0 2.64 0 4 0 C4 0.99 4 1.98 4 3 C5.32 3.33 6.64 3.66 8 4 C8 4.99 8 5.98 8 7 C8.99 7 9.98 7 11 7 C11 7.99 11 8.98 11 10 C18.92 10 26.84 10 35 10 C35 9.01 35 8.02 35 7 C38.63 7 42.26 7 46 7 C46 6.01 46 5.02 46 4 C44.02 4 42.04 4 40 4 C40 2.68 40 1.36 40 0 C43.3 0 46.6 0 50 0 C50 0.33 50 0.66 50 1 C47.03 1 44.06 1 41 1 C41 1.66 41 2.32 41 3 C42.98 3 44.96 3 47 3 C47.5625 4.9375 47.5625 4.9375 48 7 C47 8 47 8 44.71484375 8.09765625 C43.79832031 8.08605469 42.88179687 8.07445312 41.9375 8.0625 C41.01839844 8.05347656 40.09929687 8.04445313 39.15234375 8.03515625 C38.44207031 8.02355469 37.73179688 8.01195312 37 8 C36.67 9.32 36.34 10.64 36 12 C31.9380443 12.17456339 27.87705413 12.2809442 23.8125 12.375 C22.66201172 12.42527344 21.51152344 12.47554687 20.32617188 12.52734375 C11.94355008 12.67312848 11.94355008 12.67312848 9.18896484 10.70800781 C7.88671875 9.1015625 7.88671875 9.1015625 6 6 C5.01 5.34 4.02 4.68 3 4 C3 3.01 3 2.02 3 1 C2.01 0.67 1.02 0.34 0 0 Z " fill="#C2C2C2" transform="translate(45,42)"/>
<path d="M0 0 C1.67542976 0.28604898 3.34385343 0.61781233 5 1 C5 1.99 5 2.98 5 4 C6.32 4.33 7.64 4.66 9 5 C9 5.66 9 6.32 9 7 C9.99 7.33 10.98 7.66 12 8 C13.6875 10.0625 13.6875 10.0625 15 12 C13.68 12 12.36 12 11 12 C11 11.01 11 10.02 11 9 C9.68 9 8.36 9 7 9 C7 7.68 7 6.36 7 5 C6.01 5 5.02 5 4 5 C4 4.01 4 3.02 4 2 C3.01 2 2.02 2 1 2 C1 5.3 1 8.6 1 12 C1.99 12 2.98 12 4 12 C4 16.95 4 21.9 4 27 C2.68 27 1.36 27 0 27 C0 24.69 0 22.38 0 20 C-0.99 20 -1.98 20 -3 20 C-3.33 17.69 -3.66 15.38 -4 13 C-6.31 12.67 -8.62 12.34 -11 12 C-11 11.67 -11 11.34 -11 11 C-4.84765625 10.90234375 -4.84765625 10.90234375 -3 11 C-2 12 -2 12 -1.9375 15.0625 C-1.958125 16.031875 -1.97875 17.00125 -2 18 C-1.01 18.33 -0.02 18.66 1 19 C1 20.98 1 22.96 1 25 C1.66 25 2.32 25 3 25 C3 21.04 3 17.08 3 13 C1.68 12.67 0.36 12.34 -1 12 C-1.02687279 10.18757948 -1.04633715 8.37504767 -1.0625 6.5625 C-1.07410156 5.55316406 -1.08570313 4.54382813 -1.09765625 3.50390625 C-1 1 -1 1 0 0 Z " fill="#C2C2C2" transform="translate(45,5)"/>
<path d="M0 0 C0.33 0.66 0.66 1.32 1 2 C1.99 2.33 2.98 2.66 4 3 C6.1875 4.9375 6.1875 4.9375 8 7 C8 7.66 8 8.32 8 9 C9.32 9.66 10.64 10.32 12 11 C12 12.98 12 14.96 12 17 C12.99 17 13.98 17 15 17 C15 17.99 15 18.98 15 20 C21.6 20 28.2 20 35 20 C35.495 22.475 35.495 22.475 36 25 C35.505 23.515 35.505 23.515 35 22 C28.07 22 21.14 22 14 22 C13.67 21.01 13.34 20.02 13 19 C12.01 19 11.02 19 10 19 C10 16.36 10 13.72 10 11 C9.01 11 8.02 11 7 11 C6.67 10.01 6.34 9.02 6 8 C5.01 7.67 4.02 7.34 3 7 C3 6.01 3 5.02 3 4 C2.01 4 1.02 4 0 4 C0 2.68 0 1.36 0 0 Z " fill="#D5D5D5" transform="translate(60,17)"/>
<path d="M0 0 C0.33 1.32 0.66 2.64 1 4 C0.01 4 -0.98 4 -2 4 C-2.33 5.32 -2.66 6.64 -3 8 C-3.66 8 -4.32 8 -5 8 C-5 8.99 -5 9.98 -5 11 C-6.32 11 -7.64 11 -9 11 C-9 12.32 -9 13.64 -9 15 C-9.99 15 -10.98 15 -12 15 C-12 15.99 -12 16.98 -12 18 C-5.07 18 1.86 18 9 18 C9 18.99 9 19.98 9 21 C9.99 21 10.98 21 12 21 C11.67 22.32 11.34 23.64 11 25 C11 24.34 11 23.68 11 23 C9.68 22.34 8.36 21.68 7 21 C7 20.34 7 19.68 7 19 C0.4 19 -6.2 19 -13 19 C-13.33 17.35 -13.66 15.7 -14 14 C-12.68 13.67 -11.36 13.34 -10 13 C-9.67 11.68 -9.34 10.36 -9 9 C-8.34 9 -7.68 9 -7 9 C-6.67 8.01 -6.34 7.02 -6 6 C-4.0625 3.8125 -4.0625 3.8125 -2 2 C-1.34 2 -0.68 2 0 2 C0 1.34 0 0.68 0 0 Z " fill="#D7D7D7" transform="translate(33,17)"/>
<path d="M0 0 C1.67542976 0.28604898 3.34385343 0.61781233 5 1 C5 1.99 5 2.98 5 4 C6.32 4.33 7.64 4.66 9 5 C9 5.66 9 6.32 9 7 C9.99 7.33 10.98 7.66 12 8 C13.6875 10.0625 13.6875 10.0625 15 12 C13.68 12 12.36 12 11 12 C11 11.01 11 10.02 11 9 C9.68 9 8.36 9 7 9 C7 7.68 7 6.36 7 5 C6.01 5 5.02 5 4 5 C4 4.01 4 3.02 4 2 C2.68 2 1.36 2 0 2 C0 5.3 0 8.6 0 12 C-0.33 12 -0.66 12 -1 12 C-1.02687279 10.18757948 -1.04633715 8.37504767 -1.0625 6.5625 C-1.07410156 5.55316406 -1.08570313 4.54382813 -1.09765625 3.50390625 C-1 1 -1 1 0 0 Z " fill="#DADADA" transform="translate(45,5)"/>
<path d="M0 0 C1.32 0 2.64 0 4 0 C4 0.99 4 1.98 4 3 C5.32 3.33 6.64 3.66 8 4 C8 4.99 8 5.98 8 7 C8.99 7 9.98 7 11 7 C10.67 8.32 10.34 9.64 10 11 C9.401875 10.21625 8.80375 9.4325 8.1875 8.625 C6.08914751 5.85425677 6.08914751 5.85425677 3 4 C3 3.01 3 2.02 3 1 C2.01 0.67 1.02 0.34 0 0 Z " fill="#CBCBCB" transform="translate(45,42)"/>
<path d="M0 0 C0.33 1.32 0.66 2.64 1 4 C0.01 4 -0.98 4 -2 4 C-2.33 5.32 -2.66 6.64 -3 8 C-3.66 8 -4.32 8 -5 8 C-5 8.99 -5 9.98 -5 11 C-5.99 10.67 -6.98 10.34 -8 10 C-7.34 10 -6.68 10 -6 10 C-6 8.68 -6 7.36 -6 6 C-4.125 3.75 -4.125 3.75 -2 2 C-1.34 2 -0.68 2 0 2 C0 1.34 0 0.68 0 0 Z " fill="#D0D0D0" transform="translate(33,17)"/>
            <animate attributeName="opacity" calcMode="discrete" values="0;1" keyTimes="0;0.5" begin="1.5s" dur="0.5083s" repeatCount="62.9549" fill="freeze"/>
          </g>
        </g>
      </g>
    </g>
    <!-- low -->
    <g transform="translate(600,95)">
      <animateTransform attributeName="transform" type="translate"
        values="660,95; 660,95; 577.28,95; 493.79,95; 409.54,95; 324.52,95; 238.74,95; 152.19,95; 64.88,95; -23.2,95; -23.2,95"
        keyTimes="0.0;0.352525;0.374398;0.396271;0.418144;0.440017;0.46189;0.483763;0.505636;0.527509;1.0"
        begin="1.5s" dur="8.9127s" repeatCount="3.5904" fill="freeze"/>
      <g transform="scale(0.95)">
        <g>
          <g transform="scale(0.2804,0.2804) translate(-47,-53.9375)">
            <path d="M0 0 C2.875 -0.125 2.875 -0.125 6 0 C8 2 8 2 8.125 4.625 C8.08375 5.40875 8.0425 6.1925 8 7 C8.99 7.33 9.98 7.66 11 8 C11 9.98 11 11.96 11 14 C12.46759766 13.98259766 12.46759766 13.98259766 13.96484375 13.96484375 C21.0552013 13.9160409 27.96459222 14.01257435 35 15 C35.495 16.485 35.495 16.485 36 18 C38.00016466 19.20882096 38.00016466 19.20882096 40 20 C40 20.66 40 21.32 40 22 C41.02480469 21.98839844 42.04960938 21.97679688 43.10546875 21.96484375 C44.466144 21.95545978 45.82682124 21.94636023 47.1875 21.9375 C47.86103516 21.92912109 48.53457031 21.92074219 49.22851562 21.91210938 C52.95434131 21.89393462 56.3788042 22.10700608 60 23 C60 24.32 60 25.64 60 27 C56.7 27 53.4 27 50 27 C50 27.66 50 28.32 50 29 C51.98 29.33 53.96 29.66 56 30 C56 31.32 56 32.64 56 34 C55.06027344 34.18175781 55.06027344 34.18175781 54.1015625 34.3671875 C53.28429687 34.53476562 52.46703125 34.70234375 51.625 34.875 C50.81289062 35.03742187 50.00078125 35.19984375 49.1640625 35.3671875 C46.81326077 35.86658932 46.81326077 35.86658932 45 38 C42.25514407 38.14507695 39.61519457 38.18652423 36.875 38.125 C36.12089844 38.11597656 35.36679687 38.10695312 34.58984375 38.09765625 C32.72642746 38.0740687 30.86317407 38.03819719 29 38 C28.81244141 38.92039062 28.81244141 38.92039062 28.62109375 39.859375 C27.78135764 42.75355983 26.2690106 44.07477888 24 46 C23.34 46 22.68 46 22 46 C22 47.98 22 49.96 22 52 C21.01 52.33 20.02 52.66 19 53 C18.34 53.99 17.68 54.98 17 56 C15.68 55.67 14.36 55.34 13 55 C11.79515278 49.36473035 11.8870357 43.85463885 11.9375 38.125 C11.94201172 37.15046875 11.94652344 36.1759375 11.95117188 35.171875 C11.96289094 32.78118566 11.97929781 30.3906256 12 28 C11.01 27.67 10.02 27.34 9 27 C9 26.01 9 25.02 9 24 C7.68 23.67 6.36 23.34 5 23 C5 22.34 5 21.68 5 21 C-1.93 20.67 -8.86 20.34 -16 20 C-15.67 18.35 -15.34 16.7 -15 15 C-14.01 15 -13.02 15 -12 15 C-11.67 13.68 -11.34 12.36 -11 11 C-10.34 11 -9.68 11 -9 11 C-8.67 10.01 -8.34 9.02 -8 8 C-6.0625 5.8125 -6.0625 5.8125 -4 4 C-3.34 4 -2.68 4 -2 4 C-1.34 2.68 -0.68 1.36 0 0 Z " fill="#575757" transform="translate(25,26)"/>
<path d="M0 0 C2.875 -0.125 2.875 -0.125 6 0 C8 2 8 2 8.125 4.625 C8.08375 5.40875 8.0425 6.1925 8 7 C8.99 7.33 9.98 7.66 11 8 C11 9.98 11 11.96 11 14 C12.46759766 13.98259766 12.46759766 13.98259766 13.96484375 13.96484375 C21.0552013 13.9160409 27.96459222 14.01257435 35 15 C35.495 16.485 35.495 16.485 36 18 C38.00016466 19.20882096 38.00016466 19.20882096 40 20 C40 20.66 40 21.32 40 22 C41.02480469 21.98839844 42.04960938 21.97679688 43.10546875 21.96484375 C44.466144 21.95545978 45.82682124 21.94636023 47.1875 21.9375 C47.86103516 21.92912109 48.53457031 21.92074219 49.22851562 21.91210938 C52.95434131 21.89393462 56.3788042 22.10700608 60 23 C60 24.32 60 25.64 60 27 C56.7 27 53.4 27 50 27 C50 27.66 50 28.32 50 29 C51.98 29.33 53.96 29.66 56 30 C56 31.32 56 32.64 56 34 C55.37351563 34.12117188 54.74703125 34.24234375 54.1015625 34.3671875 C52.87566406 34.61855469 52.87566406 34.61855469 51.625 34.875 C50.40683594 35.11863281 50.40683594 35.11863281 49.1640625 35.3671875 C46.81326077 35.86658932 46.81326077 35.86658932 45 38 C42.25514407 38.14507695 39.61519457 38.18652423 36.875 38.125 C36.12089844 38.11597656 35.36679687 38.10695312 34.58984375 38.09765625 C32.72642746 38.0740687 30.86317407 38.03819719 29 38 C28.81244141 38.92039062 28.81244141 38.92039062 28.62109375 39.859375 C27.78135764 42.75355983 26.2690106 44.07477888 24 46 C23.34 46 22.68 46 22 46 C22 47.98 22 49.96 22 52 C20.515 52.495 20.515 52.495 19 53 C18.34 53.99 17.68 54.98 17 56 C15.68 55.67 14.36 55.34 13 55 C11.79515278 49.36473035 11.8870357 43.85463885 11.9375 38.125 C11.94201172 37.15046875 11.94652344 36.1759375 11.95117188 35.171875 C11.96289094 32.78118566 11.97929781 30.3906256 12 28 C11.34 27.67 10.68 27.34 10 27 C11.32 27 12.64 27 14 27 C14 35.91 14 44.82 14 54 C14.66 54 15.32 54 16 54 C16.33 53.01 16.66 52.02 17 51 C17.99 51 18.98 51 20 51 C20 48.69 20 46.38 20 44 C21.32 44 22.64 44 24 44 C24 43.01 24 42.02 24 41 C24.99 41 25.98 41 27 41 C27.33 39.35 27.66 37.7 28 36 C33.28 36 38.56 36 44 36 C44.33 34.68 44.66 33.36 45 32 C45.99 32 46.98 32 48 32 C47.505 31.01 47.505 31.01 47 30 C46.960008 28.00039988 46.95653201 25.99952758 47 24 C44.03 24 41.06 24 38 24 C38 22.68 38 21.36 38 20 C36.68 19.67 35.36 19.34 34 19 C34 18.34 34 17.68 34 17 C25.75 17 17.5 17 9 17 C9 14.36 9 11.72 9 9 C8.01 9 7.02 9 6 9 C6 6.69 6 4.38 6 2 C4.02 2 2.04 2 0 2 C0 3.32 0 4.64 0 6 C-0.99 6 -1.98 6 -3 6 C-3 6.99 -3 7.98 -3 9 C-4.65 9 -6.3 9 -8 9 C-6.71937515 7.2925002 -5.38232443 5.62626404 -4 4 C-3.34 4 -2.68 4 -2 4 C-1.34 2.68 -0.68 1.36 0 0 Z " fill="#858585" transform="translate(25,26)"/>
<path d="M0 0 C1.32 0 2.64 0 4 0 C4 8.91 4 17.82 4 27 C4.66 27 5.32 27 6 27 C6.33 26.01 6.66 25.02 7 24 C7.99 24 8.98 24 10 24 C10 21.69 10 19.38 10 17 C11.32 17 12.64 17 14 17 C14 16.01 14 15.02 14 14 C14.99 14 15.98 14 17 14 C17 12.68 17 11.36 17 10 C22.94 10 28.88 10 35 10 C35 10.33 35 10.66 35 11 C29.72 11 24.44 11 19 11 C18.67 12.32 18.34 13.64 18 15 C16.0625 17.25 16.0625 17.25 14 19 C13.34 19 12.68 19 12 19 C12 20.98 12 22.96 12 25 C11.01 25.33 10.02 25.66 9 26 C8.34 26.99 7.68 27.98 7 29 C5.68 28.67 4.36 28.34 3 28 C1.79515278 22.36473035 1.8870357 16.85463885 1.9375 11.125 C1.94201172 10.15046875 1.94652344 9.1759375 1.95117188 8.171875 C1.96289094 5.78118566 1.97929781 3.3906256 2 1 C1.34 0.67 0.68 0.34 0 0 Z " fill="#C9C9C9" transform="translate(35,53)"/>
<path d="M0 0 C2.875 -0.125 2.875 -0.125 6 0 C8 2 8 2 8.125 4.625 C8.08375 5.40875 8.0425 6.1925 8 7 C8.99 7.33 9.98 7.66 11 8 C11 9.98 11 11.96 11 14 C12.46759766 13.98259766 12.46759766 13.98259766 13.96484375 13.96484375 C21.0552013 13.9160409 27.96459222 14.01257435 35 15 C35 15.33 35 15.66 35 16 C26.75 16 18.5 16 10 16 C10 13.69 10 11.38 10 9 C8.68 9 7.36 9 6 9 C6 6.69 6 4.38 6 2 C4.02 2 2.04 2 0 2 C0 3.32 0 4.64 0 6 C-0.99 6 -1.98 6 -3 6 C-3 6.99 -3 7.98 -3 9 C-4.65 9 -6.3 9 -8 9 C-6.71937515 7.2925002 -5.38232443 5.62626404 -4 4 C-3.34 4 -2.68 4 -2 4 C-1.34 2.68 -0.68 1.36 0 0 Z " fill="#DBDBDB" transform="translate(25,26)"/>
<path d="M0 0 C0.33 0 0.66 0 1 0 C1 2.31 1 4.62 1 7 C9.58 7 18.16 7 27 7 C27 7.66 27 8.32 27 9 C28.32 9.66 29.64 10.32 31 11 C31 11.66 31 12.32 31 13 C35.95 13 40.9 13 46 13 C46 13.33 46 13.66 46 14 C40.39 14 34.78 14 29 14 C29 13.01 29 12.02 29 11 C27.68 10.67 26.36 10.34 25 10 C25 9.34 25 8.68 25 8 C16.75 8 8.5 8 0 8 C0 5.36 0 2.72 0 0 Z " fill="#A0A0A0" transform="translate(34,35)"/>
<path d="M0 0 C0.33 1.32 0.66 2.64 1 4 C0.34 4 -0.32 4 -1 4 C-1 4.99 -1 5.98 -1 7 C-2.32 7.33 -3.64 7.66 -5 8 C-5 8.66 -5 9.32 -5 10 C1.6 10 8.2 10 15 10 C15.33 11.32 15.66 12.64 16 14 C16.99 14 17.98 14 19 14 C18.67 15.32 18.34 16.64 18 18 C18 17.01 18 16.02 18 15 C16.68 14.67 15.36 14.34 14 14 C14 13.34 14 12.68 14 12 C7.07 11.67 0.14 11.34 -7 11 C-6.67 9.35 -6.34 7.7 -6 6 C-5.01 6 -4.02 6 -3 6 C-2.67 4.68 -2.34 3.36 -2 2 C-1.34 2 -0.68 2 0 2 C0 1.34 0 0.68 0 0 Z " fill="#C3C3C3" transform="translate(16,35)"/>
<path d="M0 0 C1.99954746 -0.04254356 4.00041636 -0.04080783 6 0 C7 1 7 1 7.09765625 2.84765625 C7.04882812 5.92382812 7.04882812 5.92382812 7 9 C6.67 9 6.34 9 6 9 C6 6.69 6 4.38 6 2 C4.02 2 2.04 2 0 2 C0 3.32 0 4.64 0 6 C-0.99 6 -1.98 6 -3 6 C-3 6.99 -3 7.98 -3 9 C-4.65 9 -6.3 9 -8 9 C-6.71937515 7.2925002 -5.38232443 5.62626404 -4 4 C-3.34 4 -2.68 4 -2 4 C-1.34 2.68 -0.68 1.36 0 0 Z " fill="#BBBBBB" transform="translate(25,26)"/>
<path d="M0 0 C0.33 1.32 0.66 2.64 1 4 C0.34 4 -0.32 4 -1 4 C-1 4.99 -1 5.98 -1 7 C-1.639375 7.12375 -2.27875 7.2475 -2.9375 7.375 C-3.9584375 7.684375 -3.9584375 7.684375 -5 8 C-5.33 8.66 -5.66 9.32 -6 10 C-6 8.68 -6 7.36 -6 6 C-5.01 6 -4.02 6 -3 6 C-2.67 4.68 -2.34 3.36 -2 2 C-1.34 2 -0.68 2 0 2 C0 1.34 0 0.68 0 0 Z " fill="#ACACAC" transform="translate(16,35)"/>
            <animate attributeName="opacity" calcMode="discrete" values="1;0" keyTimes="0;0.5" begin="1.5s" dur="0.6777s" repeatCount="47.2185" fill="freeze"/>
          </g>
          <g transform="scale(0.2804,0.2804) translate(-66.5,-34)">
            <path d="M0 0 C1.67542976 0.28604898 3.34385343 0.61781233 5 1 C5 1.99 5 2.98 5 4 C6.32 4.33 7.64 4.66 9 5 C9 5.66 9 6.32 9 7 C9.99 7.33 10.98 7.66 12 8 C14.1875 9.9375 14.1875 9.9375 16 12 C16 12.66 16 13.32 16 14 C16.99 14.33 17.98 14.66 19 15 C21.1875 16.9375 21.1875 16.9375 23 19 C23 19.66 23 20.32 23 21 C24.32 21.66 25.64 22.32 27 23 C27 24.98 27 26.96 27 29 C27.99 29 28.98 29 30 29 C30 29.99 30 30.98 30 32 C36.6 32 43.2 32 50 32 C50.495 34.475 50.495 34.475 51 37 C50 38 50 38 47.93359375 38.09765625 C47.10988281 38.08605469 46.28617187 38.07445312 45.4375 38.0625 C44.61121094 38.05347656 43.78492187 38.04445312 42.93359375 38.03515625 C42.29550781 38.02355469 41.65742187 38.01195312 41 38 C41 38.66 41 39.32 41 40 C42.98 40 44.96 40 47 40 C47.5625 41.9375 47.5625 41.9375 48 44 C47 45 47 45 44.71484375 45.09765625 C43.79832031 45.08605469 42.88179688 45.07445312 41.9375 45.0625 C41.01839844 45.05347656 40.09929687 45.04445312 39.15234375 45.03515625 C38.44207031 45.02355469 37.73179688 45.01195312 37 45 C36.67 46.32 36.34 47.64 36 49 C31.9380443 49.17456339 27.87705413 49.2809442 23.8125 49.375 C22.66201172 49.42527344 21.51152344 49.47554687 20.32617188 49.52734375 C11.94355008 49.67312848 11.94355008 49.67312848 9.18896484 47.70800781 C7.88671875 46.1015625 7.88671875 46.1015625 6 43 C5.01 42.34 4.02 41.68 3 41 C3 40.01 3 39.02 3 38 C1.68 37.67 0.36 37.34 -1 37 C-1 36.34 -1 35.68 -1 35 C-2.32 34.34 -3.64 33.68 -5 33 C-5 32.34 -5 31.68 -5 31 C-11.6 31 -18.2 31 -25 31 C-25.33 29.35 -25.66 27.7 -26 26 C-24.68 25.67 -23.36 25.34 -22 25 C-21.67 23.68 -21.34 22.36 -21 21 C-20.34 21 -19.68 21 -19 21 C-18.67 20.01 -18.34 19.02 -18 18 C-16.0625 15.8125 -16.0625 15.8125 -14 14 C-13.34 14 -12.68 14 -12 14 C-11.67 13.01 -11.34 12.02 -11 11 C-4.84765625 10.90234375 -4.84765625 10.90234375 -3 11 C-2 12 -2 12 -1.9375 15.0625 C-1.958125 16.031875 -1.97875 17.00125 -2 18 C-1.01 18.33 -0.02 18.66 1 19 C1 20.98 1 22.96 1 25 C1.66 25 2.32 25 3 25 C3 21.04 3 17.08 3 13 C1.68 12.67 0.36 12.34 -1 12 C-1.02687279 10.18757948 -1.04633715 8.37504767 -1.0625 6.5625 C-1.07410156 5.55316406 -1.08570312 4.54382813 -1.09765625 3.50390625 C-1 1 -1 1 0 0 Z " fill="#5B5B5B" transform="translate(45,5)"/>
<path d="M0 0 C43.89 0 87.78 0 133 0 C133 0.66 133 1.32 133 2 C89.11 2 45.22 2 0 2 C0 1.34 0 0.68 0 0 Z " fill="#A2A2A2" transform="translate(0,61)"/>
<path d="M0 0 C1.32 0 2.64 0 4 0 C4 0.99 4 1.98 4 3 C5.32 3.33 6.64 3.66 8 4 C8 4.99 8 5.98 8 7 C8.99 7 9.98 7 11 7 C11 7.99 11 8.98 11 10 C18.92 10 26.84 10 35 10 C35 9.01 35 8.02 35 7 C38.63 7 42.26 7 46 7 C46 6.01 46 5.02 46 4 C44.02 4 42.04 4 40 4 C40 2.68 40 1.36 40 0 C43.3 0 46.6 0 50 0 C50 0.33 50 0.66 50 1 C47.03 1 44.06 1 41 1 C41 1.66 41 2.32 41 3 C42.98 3 44.96 3 47 3 C47.5625 4.9375 47.5625 4.9375 48 7 C47 8 47 8 44.71484375 8.09765625 C43.79832031 8.08605469 42.88179687 8.07445312 41.9375 8.0625 C41.01839844 8.05347656 40.09929687 8.04445313 39.15234375 8.03515625 C38.44207031 8.02355469 37.73179688 8.01195312 37 8 C36.67 9.32 36.34 10.64 36 12 C31.9380443 12.17456339 27.87705413 12.2809442 23.8125 12.375 C22.66201172 12.42527344 21.51152344 12.47554687 20.32617188 12.52734375 C11.94355008 12.67312848 11.94355008 12.67312848 9.18896484 10.70800781 C7.88671875 9.1015625 7.88671875 9.1015625 6 6 C5.01 5.34 4.02 4.68 3 4 C3 3.01 3 2.02 3 1 C2.01 0.67 1.02 0.34 0 0 Z " fill="#C2C2C2" transform="translate(45,42)"/>
<path d="M0 0 C1.67542976 0.28604898 3.34385343 0.61781233 5 1 C5 1.99 5 2.98 5 4 C6.32 4.33 7.64 4.66 9 5 C9 5.66 9 6.32 9 7 C9.99 7.33 10.98 7.66 12 8 C13.6875 10.0625 13.6875 10.0625 15 12 C13.68 12 12.36 12 11 12 C11 11.01 11 10.02 11 9 C9.68 9 8.36 9 7 9 C7 7.68 7 6.36 7 5 C6.01 5 5.02 5 4 5 C4 4.01 4 3.02 4 2 C3.01 2 2.02 2 1 2 C1 5.3 1 8.6 1 12 C1.99 12 2.98 12 4 12 C4 16.95 4 21.9 4 27 C2.68 27 1.36 27 0 27 C0 24.69 0 22.38 0 20 C-0.99 20 -1.98 20 -3 20 C-3.33 17.69 -3.66 15.38 -4 13 C-6.31 12.67 -8.62 12.34 -11 12 C-11 11.67 -11 11.34 -11 11 C-4.84765625 10.90234375 -4.84765625 10.90234375 -3 11 C-2 12 -2 12 -1.9375 15.0625 C-1.958125 16.031875 -1.97875 17.00125 -2 18 C-1.01 18.33 -0.02 18.66 1 19 C1 20.98 1 22.96 1 25 C1.66 25 2.32 25 3 25 C3 21.04 3 17.08 3 13 C1.68 12.67 0.36 12.34 -1 12 C-1.02687279 10.18757948 -1.04633715 8.37504767 -1.0625 6.5625 C-1.07410156 5.55316406 -1.08570313 4.54382813 -1.09765625 3.50390625 C-1 1 -1 1 0 0 Z " fill="#C2C2C2" transform="translate(45,5)"/>
<path d="M0 0 C0.33 0.66 0.66 1.32 1 2 C1.99 2.33 2.98 2.66 4 3 C6.1875 4.9375 6.1875 4.9375 8 7 C8 7.66 8 8.32 8 9 C9.32 9.66 10.64 10.32 12 11 C12 12.98 12 14.96 12 17 C12.99 17 13.98 17 15 17 C15 17.99 15 18.98 15 20 C21.6 20 28.2 20 35 20 C35.495 22.475 35.495 22.475 36 25 C35.505 23.515 35.505 23.515 35 22 C28.07 22 21.14 22 14 22 C13.67 21.01 13.34 20.02 13 19 C12.01 19 11.02 19 10 19 C10 16.36 10 13.72 10 11 C9.01 11 8.02 11 7 11 C6.67 10.01 6.34 9.02 6 8 C5.01 7.67 4.02 7.34 3 7 C3 6.01 3 5.02 3 4 C2.01 4 1.02 4 0 4 C0 2.68 0 1.36 0 0 Z " fill="#D5D5D5" transform="translate(60,17)"/>
<path d="M0 0 C0.33 1.32 0.66 2.64 1 4 C0.01 4 -0.98 4 -2 4 C-2.33 5.32 -2.66 6.64 -3 8 C-3.66 8 -4.32 8 -5 8 C-5 8.99 -5 9.98 -5 11 C-6.32 11 -7.64 11 -9 11 C-9 12.32 -9 13.64 -9 15 C-9.99 15 -10.98 15 -12 15 C-12 15.99 -12 16.98 -12 18 C-5.07 18 1.86 18 9 18 C9 18.99 9 19.98 9 21 C9.99 21 10.98 21 12 21 C11.67 22.32 11.34 23.64 11 25 C11 24.34 11 23.68 11 23 C9.68 22.34 8.36 21.68 7 21 C7 20.34 7 19.68 7 19 C0.4 19 -6.2 19 -13 19 C-13.33 17.35 -13.66 15.7 -14 14 C-12.68 13.67 -11.36 13.34 -10 13 C-9.67 11.68 -9.34 10.36 -9 9 C-8.34 9 -7.68 9 -7 9 C-6.67 8.01 -6.34 7.02 -6 6 C-4.0625 3.8125 -4.0625 3.8125 -2 2 C-1.34 2 -0.68 2 0 2 C0 1.34 0 0.68 0 0 Z " fill="#D7D7D7" transform="translate(33,17)"/>
<path d="M0 0 C1.67542976 0.28604898 3.34385343 0.61781233 5 1 C5 1.99 5 2.98 5 4 C6.32 4.33 7.64 4.66 9 5 C9 5.66 9 6.32 9 7 C9.99 7.33 10.98 7.66 12 8 C13.6875 10.0625 13.6875 10.0625 15 12 C13.68 12 12.36 12 11 12 C11 11.01 11 10.02 11 9 C9.68 9 8.36 9 7 9 C7 7.68 7 6.36 7 5 C6.01 5 5.02 5 4 5 C4 4.01 4 3.02 4 2 C2.68 2 1.36 2 0 2 C0 5.3 0 8.6 0 12 C-0.33 12 -0.66 12 -1 12 C-1.02687279 10.18757948 -1.04633715 8.37504767 -1.0625 6.5625 C-1.07410156 5.55316406 -1.08570313 4.54382813 -1.09765625 3.50390625 C-1 1 -1 1 0 0 Z " fill="#DADADA" transform="translate(45,5)"/>
<path d="M0 0 C1.32 0 2.64 0 4 0 C4 0.99 4 1.98 4 3 C5.32 3.33 6.64 3.66 8 4 C8 4.99 8 5.98 8 7 C8.99 7 9.98 7 11 7 C10.67 8.32 10.34 9.64 10 11 C9.401875 10.21625 8.80375 9.4325 8.1875 8.625 C6.08914751 5.85425677 6.08914751 5.85425677 3 4 C3 3.01 3 2.02 3 1 C2.01 0.67 1.02 0.34 0 0 Z " fill="#CBCBCB" transform="translate(45,42)"/>
<path d="M0 0 C0.33 1.32 0.66 2.64 1 4 C0.01 4 -0.98 4 -2 4 C-2.33 5.32 -2.66 6.64 -3 8 C-3.66 8 -4.32 8 -5 8 C-5 8.99 -5 9.98 -5 11 C-5.99 10.67 -6.98 10.34 -8 10 C-7.34 10 -6.68 10 -6 10 C-6 8.68 -6 7.36 -6 6 C-4.125 3.75 -4.125 3.75 -2 2 C-1.34 2 -0.68 2 0 2 C0 1.34 0 0.68 0 0 Z " fill="#D0D0D0" transform="translate(33,17)"/>
            <animate attributeName="opacity" calcMode="discrete" values="0;1" keyTimes="0;0.5" begin="1.5s" dur="0.6777s" repeatCount="47.2185" fill="freeze"/>
          </g>
        </g>
      </g>
    </g>
  </g>

  <!-- ground: scalloped line + dash/dot cracks, scrolling left at the same speed as the cacti -->

  <!-- cacti: three separate obstacles, spread across the 10s loop so they never overlap -->
  <g fill="#4f7942">
    <animate attributeName="fill"
      values="#4f7942;#4f7942;#ACACAC;#ACACAC"
      keyTimes="0;0.638333;0.666667;1"
      begin="1.5s" dur="35.2941s" repeatCount="0.9067" fill="freeze"/>
    <!-- large: arrives under the jump peak at t=3s (paired) -->
    <g transform="translate(600,112)">
      <animateTransform attributeName="transform" type="translate"
        values="660,112; 660,112; 578.17,112; 495.43,112; 411.79,112; 327.23,112; 241.77,112; 155.4,112; 68.12,112; -20.07,112; -20.07,112"
        keyTimes="0.0;0.134458;0.158284;0.182109;0.205935;0.229761;0.253587;0.277413;0.301238;0.325064;1.0"
        begin="1.5s" dur="8.9127s" repeatCount="3.5904" fill="freeze"/>
      <g transform="scale(1)">
        <rect x="-5" y="-46" width="10" height="46" rx="5"/>
        <rect x="5" y="-34" width="10" height="8" rx="4"/>
        <rect x="9" y="-46" width="8" height="18" rx="4"/>
        <rect x="-15" y="-24" width="10" height="8" rx="4"/>
        <rect x="-15" y="-34" width="8" height="18" rx="4"/>
      </g>
    </g>
    <g transform="translate(600,112)">
      <animateTransform attributeName="transform" type="translate"
        values="660,112; 660,112; 578.11,112; 495.32,112; 411.64,112; 327.05,112; 241.57,112; 155.19,112; 67.91,112; -20.27,112; -20.27,112"
        keyTimes="0.0;0.147294;0.170996;0.194698;0.218399;0.242101;0.265803;0.289504;0.313206;0.336908;1.0"
        begin="1.5s" dur="8.9127s" repeatCount="3.5904" fill="freeze"/>
      <g transform="scale(1)">
        <rect x="-5" y="-46" width="10" height="46" rx="5"/>
        <rect x="5" y="-34" width="10" height="8" rx="4"/>
        <rect x="9" y="-46" width="8" height="18" rx="4"/>
        <rect x="-15" y="-24" width="10" height="8" rx="4"/>
        <rect x="-15" y="-34" width="8" height="18" rx="4"/>
      </g>
    </g>
    <!-- medium: arrives under the jump peak at t=7s -->
    <g transform="translate(600,112)">
      <animateTransform attributeName="transform" type="translate"
        values="660,112; 660,112; 576.59,112; 492.52,112; 407.8,112; 322.42,112; 236.39,112; 149.71,112; 62.37,112; -25.63,112; -25.63,112"
        keyTimes="0.0;0.566707;0.586936;0.607166;0.627395;0.647625;0.667855;0.688084;0.708314;0.728543;1.0"
        begin="1.5s" dur="8.9127s" repeatCount="3.5904" fill="freeze"/>
      <g transform="scale(0.75)">
        <rect x="-5" y="-46" width="10" height="46" rx="5"/>
        <rect x="5" y="-34" width="10" height="8" rx="4"/>
        <rect x="9" y="-46" width="8" height="18" rx="4"/>
      </g>
    </g>
    <!-- small: arrives under the jump peak at t=9s (paired) -->
    <g transform="translate(600,112)">
      <animateTransform attributeName="transform" type="translate"
        values="660,112; 660,112; 576.04,112; 491.52,112; 406.43,112; 320.77,112; 234.54,112; 147.75,112; 60.39,112; -27.54,112; -27.54,112"
        keyTimes="0.0;0.776104;0.79494;0.813776;0.832612;0.851448;0.870283;0.889119;0.907955;0.926791;1.0"
        begin="1.5s" dur="8.9127s" repeatCount="3.5904" fill="freeze"/>
      <g transform="scale(0.5)">
        <rect x="-5" y="-46" width="10" height="46" rx="5"/>
      </g>
    </g>
    <g transform="translate(600,112)">
      <animateTransform attributeName="transform" type="translate"
        values="660,112; 660,112; 576.03,112; 491.5,112; 406.41,112; 320.74,112; 234.51,112; 147.72,112; 60.35,112; -27.57,112; -27.57,112"
        keyTimes="0.0;0.780279;0.799089;0.817899;0.836709;0.855518;0.874328;0.893138;0.911948;0.930758;1.0"
        begin="1.5s" dur="8.9127s" repeatCount="3.5904" fill="freeze"/>
      <g transform="scale(0.5)">
        <rect x="-5" y="-46" width="10" height="46" rx="5"/>
      </g>
    </g>
    <!-- fatal: arrives right as the dino is grounded (not jumping) at t=32s — this is the one it doesn't clear -->
    <g transform="translate(660,112)">
      <animateTransform attributeName="transform" type="translate"
        values="660,112; 660,112; 70,112"
        keyTimes="0; 0.9604; 1.0"
        begin="1.5s" dur="32.0s" repeatCount="1" fill="freeze"/>
      <g transform="scale(1)">
        <rect x="-5" y="-46" width="10" height="46" rx="5"/>
        <rect x="5" y="-34" width="10" height="8" rx="4"/>
        <rect x="9" y="-46" width="8" height="18" rx="4"/>
        <rect x="-15" y="-24" width="10" height="8" rx="4"/>
        <rect x="-15" y="-34" width="8" height="18" rx="4"/>
      </g>
    </g>
  </g>

  <!-- wipe reveal: covers the scene until the dino's hop finishes, then uncovers left-to-right -->
  <rect x="0" y="0" width="600" height="150" fill="#ffffff">
    <animate attributeName="x" from="0" to="600" begin="0.9s" dur="0.6s" fill="freeze"/>
    <animate attributeName="width" from="600" to="0" begin="0.9s" dur="0.6s" fill="freeze"/>
  </rect>

  <!-- small patch of ground already visible under the dino's feet, before the wipe reaches it -->
  <path d="M35,112 L46,112 Q51,105 56,112 L61,112 Q66,105 71,112 L106,112"
        fill="none" stroke="#b7b7b7" stroke-width="1.5">
    <animate attributeName="opacity" values="1;0" begin="1.5s" dur="0.01s" fill="freeze"/>
  </path>

  <!-- dino: real vector artwork (uploaded seeklogo svg), so it survives GitHub's SVG sanitizer -->
  <g transform="translate(70,112)">
    <!-- intro: a small idle hop in place before the ground paints in and running begins -->
    <animateTransform attributeName="transform" type="translate"
      values="70,112; 70,112; 70,102.28; 70,94.72; 70,89.32; 70,86.08; 70,85; 70,86.08; 70,89.32; 70,94.72; 70,102.28; 70,112; 70,112"
      keyTimes="0; 0.15; 0.22; 0.29; 0.36; 0.43; 0.5; 0.57; 0.64; 0.71; 0.78; 0.85; 1"
      begin="0s" dur="0.9s" repeatCount="1" fill="freeze"/>
    <animateTransform attributeName="transform" type="translate"
      values="70,112; 70,112; 70,87.88; 70,69.12; 70,55.72; 70,47.68; 70,45; 70,47.68; 70,55.72; 70,69.12; 70,87.88; 70,112; 70,112"
      keyTimes="0; 0.32; 0.356; 0.392; 0.428; 0.464; 0.5; 0.536; 0.572; 0.608; 0.644; 0.68; 1"
      begin="1.5s" dur="1.7826s" repeatCount="17.9513" fill="freeze"/>

    <defs>
      <clipPath id="dinoBodyClip">
        <rect x="-34.8" y="-37.4" width="34.8" height="30.66"/>
      </clipPath>
      <clipPath id="dinoLegLeftClip">
        <rect x="-34.8" y="-6.74" width="14.8" height="6.74"/>
      </clipPath>
      <clipPath id="dinoLegRightClip">
        <rect x="-20.0" y="-6.74" width="20.0" height="6.74"/>
      </clipPath>
    </defs>

    <!-- torso + head: completely static, no bounce -->
    <g clip-path="url(#dinoBodyClip)">
      <g transform="translate(-34.8,-37.4) scale(0.12268857198258386,0.12246234446627374) translate(-13.848,0)">
        <path d="M269.352 91.664h-42.436V80.04h70.577v-65.73h-14.294V0H168.4v14.309h-13.848v91.664H140.26v13.861h-20.994v14.309H98.271v14.308H83.977v13.862H58.069v-14.309H44.222v-13.861H29.928v-28.17h-16.08v86.746h13.847v14.308h14.293v13.862h13.848v14.308H70.13v13.862h13.847v56.34h30.375V289.3h-13.848V277.23h13.848v-13.862h14.294V249.06h11.613v14.308h14.294V305.4h30.375V289.3h-14.294v-54.104h14.294V220.89h13.847v-21.016h14.294v-49.186h11.614v13.862h16.527v-30.406h-28.14v-25.934h56.282z" fill="#535353"/>
        <path d="M182.248 20.569h16.974V37.56h-16.974z" fill="#ffffff"/>
      </g>
    </g>

    <!-- left leg: lifts while right leg plants, frozen mid-air -->
    <g>
      <animateTransform attributeName="transform" type="translate"
        values="0,0; 0,-5; 0,0; 0,-5; 0,0; 0,-5; 0,0; 0,-5; 0,-2; 0,-2; 0,0; 0,-5; 0,0; 0,-5; 0,0; 0,-5; 0,0; 0,-5"
        keyTimes="0.0;0.04;0.08;0.12;0.16;0.2;0.24;0.28;0.32;0.68;0.72;0.76;0.8;0.84;0.88;0.92;0.96;1.0"
        calcMode="discrete"
        begin="1.5s" dur="1.7826s" repeatCount="17.9513" fill="freeze"/>
      <animateTransform attributeName="transform" type="translate"
        values="0,-2" begin="33.5s" dur="0.01s" fill="freeze"/>
      <g clip-path="url(#dinoLegLeftClip)">
        <g transform="translate(-34.8,-37.4) scale(0.12268857198258386,0.12246234446627374) translate(-13.848,0)">
          <path d="M269.352 91.664h-42.436V80.04h70.577v-65.73h-14.294V0H168.4v14.309h-13.848v91.664H140.26v13.861h-20.994v14.309H98.271v14.308H83.977v13.862H58.069v-14.309H44.222v-13.861H29.928v-28.17h-16.08v86.746h13.847v14.308h14.293v13.862h13.848v14.308H70.13v13.862h13.847v56.34h30.375V289.3h-13.848V277.23h13.848v-13.862h14.294V249.06h11.613v14.308h14.294V305.4h30.375V289.3h-14.294v-54.104h14.294V220.89h13.847v-21.016h14.294v-49.186h11.614v13.862h16.527v-30.406h-28.14v-25.934h56.282z" fill="#535353"/>
        </g>
      </g>
    </g>

    <!-- right leg: opposite phase of the left leg, frozen mid-air -->
    <g>
      <animateTransform attributeName="transform" type="translate"
        values="0,-5; 0,0; 0,-5; 0,0; 0,-5; 0,-2; 0,-2; 0,-5; 0,0; 0,-5; 0,0; 0,-5"
        keyTimes="0.0;0.064;0.128;0.192;0.256;0.32;0.68;0.744;0.808;0.872;0.936;1.0"
        calcMode="discrete"
        begin="1.5s" dur="1.7826s" repeatCount="17.9513" fill="freeze"/>
      <animateTransform attributeName="transform" type="translate"
        values="0,-2" begin="33.5s" dur="0.01s" fill="freeze"/>
      <g clip-path="url(#dinoLegRightClip)">
        <g transform="translate(-34.8,-37.4) scale(0.12268857198258386,0.12246234446627374) translate(-13.848,0)">
          <path d="M269.352 91.664h-42.436V80.04h70.577v-65.73h-14.294V0H168.4v14.309h-13.848v91.664H140.26v13.861h-20.994v14.309H98.271v14.308H83.977v13.862H58.069v-14.309H44.222v-13.861H29.928v-28.17h-16.08v86.746h13.847v14.308h14.293v13.862h13.848v14.308H70.13v13.862h13.847v56.34h30.375V289.3h-13.848V277.23h13.848v-13.862h14.294V249.06h11.613v14.308h14.294V305.4h30.375V289.3h-14.294v-54.104h14.294V220.89h13.847v-21.016h14.294v-49.186h11.614v13.862h16.527v-30.406h-28.14v-25.934h56.282z" fill="#535353"/>
        </g>
      </g>
    </g>
  </g>

  <!-- night-mode invert: crossfades in as the score crosses 200, holds, fades back to day with time to spare before wrap -->
  <rect x="0" y="-20" width="600" height="170" fill="#ffffff" opacity="0" style="mix-blend-mode:difference">
    <animate attributeName="opacity"
      values="0;0;1;1"
      keyTimes="0;0.638333;0.666667;1"
      begin="1.5s" dur="35.2941s" repeatCount="0.9067" fill="freeze"/>
  </rect>

  <!-- dino eye override: bigger, wide, surprised — only appears at the moment of the collision, at the sprite's actual eye position -->
  <g opacity="0">
    <animate attributeName="opacity" values="0;1" begin="33.5s" dur="0.01s" fill="freeze"/>
    <rect x="55.59" y="76.85" width="2.6" height="2.6" fill="#666666"/>
    <ellipse cx="57.04" cy="78.3" rx="2.3" ry="2.7" fill="#ffffff"/>
    <circle cx="57.04" cy="78.3" r="0.7" fill="#000000"/>
    <path d="M54.6,75.3 Q56.89,74.2 59.2,75.3" fill="none" stroke="#535353" stroke-width="0.5" stroke-linecap="round"/>
  </g>

  <!-- game over screen: hidden until the collision at t=34s, then fades in and stays -->
  <g opacity="0">
    <animate attributeName="opacity" values="0;1" begin="33.5s" dur="0.01s" fill="freeze"/>
<g transform="translate(150.9,3.6) scale(0.138)">
      <path d="M0 0 C22.44 0 44.88 0 68 0 C68 4.62 68 9.24 68 14 C72.29 14 76.58 14 81 14 C81 36.44 81 58.88 81 82 C76.38 82 71.76 82 67 82 C67 86.62 67 91.24 67 96 C44.89 96 22.78 96 0 96 C0 91.38 0 86.76 0 82 C-4.62 82 -9.24 82 -14 82 C-14 59.56 -14 37.12 -14 14 C-9.38 14 -4.76 14 0 14 C0 9.38 0 4.76 0 0 Z " fill="#B7B7B7" transform="translate(1230,324)"/>
      <path d="M0 0 C26.73 0 53.46 0 81 0 C81 4.62 81 9.24 81 14 C85.62 14 90.24 14 95 14 C95 27.53 95 41.06 95 55 C86.09 55 77.18 55 68 55 C68 59.29 68 63.58 68 68 C72.29 68 76.58 68 81 68 C81 72.62 81 77.24 81 82 C85.62 82 90.24 82 95 82 C95 86.62 95 91.24 95 96 C81.47 96 67.94 96 54 96 C54 91.38 54 86.76 54 82 C49.71 82 45.42 82 41 82 C41 77.71 41 73.42 41 69 C36.38 69 31.76 69 27 69 C27 77.91 27 86.82 27 96 C18.09 96 9.18 96 0 96 C0 64.32 0 32.64 0 0 Z " fill="#B6B7B7" transform="translate(1838,324)"/>
      <path d="M0 0 C13.53 0 27.06 0 41 0 C41 4.62 41 9.24 41 14 C45.62 14 50.24 14 55 14 C55 18.29 55 22.58 55 27 C59.29 27 63.58 27 68 27 C68 49.77 68 72.54 68 96 C59.09 96 50.18 96 41 96 C41 87.09 41 78.18 41 69 C27.47 69 13.94 69 0 69 C0 77.91 0 86.82 0 96 C-8.91 96 -17.82 96 -27 96 C-27 73.56 -27 51.12 -27 28 C-22.38 28 -17.76 28 -13 28 C-13 23.38 -13 18.76 -13 14 C-8.71 14 -4.42 14 0 14 C0 9.38 0 4.76 0 0 Z " fill="#B5B5B5" transform="translate(500,324)"/>
      <path d="M0 0 C8.91 0 17.82 0 27 0 C27 4.62 27 9.24 27 14 C31.29 14 35.58 14 40 14 C40 18.62 40 23.24 40 28 C44.62 28 49.24 28 54 28 C54 23.38 54 18.76 54 14 C58.62 14 63.24 14 68 14 C68 9.38 68 4.76 68 0 C76.91 0 85.82 0 95 0 C95 31.68 95 63.36 95 96 C86.09 96 77.18 96 68 96 C68 82.47 68 68.94 68 55 C63.38 55 58.76 55 54 55 C54 59.62 54 64.24 54 69 C49.38 69 44.76 69 40 69 C40 64.38 40 59.76 40 55 C35.38 55 30.76 55 26 55 C26 68.53 26 82.06 26 96 C17.42 96 8.84 96 0 96 C0 64.32 0 32.64 0 0 Z " fill="#B8B8B8" transform="translate(688,324)"/>
      <path d="M0 0 C31.02 0 62.04 0 94 0 C94 4.62 94 9.24 94 14 C71.89 14 49.78 14 27 14 C27 22.91 27 31.82 27 41 C44.82 41 62.64 41 81 41 C81 45.62 81 50.24 81 55 C63.18 55 45.36 55 27 55 C27 63.91 27 72.82 27 82 C49.11 82 71.22 82 94 82 C94 86.62 94 91.24 94 96 C62.98 96 31.96 96 0 96 C0 64.32 0 32.64 0 0 Z " fill="#B6B6B6" transform="translate(1634,324)"/>
      <path d="M0 0 C30.69 0 61.38 0 93 0 C93 4.62 93 9.24 93 14 C70.89 14 48.78 14 26 14 C26 22.91 26 31.82 26 41 C43.49 41 60.98 41 79 41 C79 45.62 79 50.24 79 55 C61.51 55 44.02 55 26 55 C26 63.91 26 72.82 26 82 C48.11 82 70.22 82 93 82 C93 86.62 93 91.24 93 96 C62.31 96 31.62 96 0 96 C0 64.32 0 32.64 0 0 Z " fill="#B7B7B7" transform="translate(902,324)"/>
      <path d="M0 0 C22.44 0 44.88 0 68 0 C68 4.62 68 9.24 68 14 C50.18 14 32.36 14 14 14 C14 18.62 14 23.24 14 28 C9.38 28 4.76 28 0 28 C0 41.2 0 54.4 0 68 C4.62 68 9.24 68 14 68 C14 72.62 14 77.24 14 82 C22.91 82 31.82 82 41 82 C41 73.09 41 64.18 41 55 C36.38 55 31.76 55 27 55 C27 50.38 27 45.76 27 41 C40.53 41 54.06 41 68 41 C68 59.15 68 77.3 68 96 C45.56 96 23.12 96 0 96 C0 91.38 0 86.76 0 82 C-4.62 82 -9.24 82 -14 82 C-14 77.71 -14 73.42 -14 69 C-18.29 69 -22.58 69 -27 69 C-27 55.47 -27 41.94 -27 28 C-22.71 28 -18.42 28 -14 28 C-14 23.38 -14 18.76 -14 14 C-9.38 14 -4.76 14 0 14 C0 9.38 0 4.76 0 0 Z " fill="#B6B6B7" transform="translate(287,324)"/>
      <path d="M0 0 C8.91 0 17.82 0 27 0 C27 13.53 27 27.06 27 41 C31.29 41 35.58 41 40 41 C40 45.62 40 50.24 40 55 C44.62 55 49.24 55 54 55 C54 50.38 54 45.76 54 41 C58.29 41 62.58 41 67 41 C67 27.47 67 13.94 67 0 C75.91 0 84.82 0 94 0 C94 18.15 94 36.3 94 55 C89.71 55 85.42 55 81 55 C81 59.62 81 64.24 81 69 C76.71 69 72.42 69 68 69 C68 73.29 68 77.58 68 82 C63.38 82 58.76 82 54 82 C54 86.62 54 91.24 54 96 C49.38 96 44.76 96 40 96 C40 91.38 40 86.76 40 82 C35.71 82 31.42 82 27 82 C27 77.71 27 73.42 27 69 C22.38 69 17.76 69 13 69 C13 64.38 13 59.76 13 55 C8.71 55 4.42 55 0 55 C0 36.85 0 18.7 0 0 Z " fill="#B6B6B6" transform="translate(1425,324)"/>
      <path d="M0 0 C13.53 0 27.06 0 41 0 C41 22.44 41 44.88 41 68 C27.47 68 13.94 68 0 68 C0 45.56 0 23.12 0 0 Z " fill="#050505" transform="translate(1243,338)"/>
      <path d="M0 0 C13.86 0 27.72 0 42 0 C42 8.91 42 17.82 42 27 C37.38 27 32.76 27 28 27 C28 31.62 28 36.24 28 41 C18.76 41 9.52 41 0 41 C0 27.47 0 13.94 0 0 Z " fill="#080808" transform="translate(1864,338)"/>
      <path d="M0 0 C4.29 0 8.58 0 13 0 C13 4.62 13 9.24 13 14 C17.62 14 22.24 14 27 14 C27 22.91 27 31.82 27 41 C13.47 41 -0.06 41 -14 41 C-14 32.09 -14 23.18 -14 14 C-9.38 14 -4.76 14 0 14 C0 9.38 0 4.76 0 0 Z " fill="#050505" transform="translate(514,338)"/>
      <path d="M0 0 C30.36 0 60.72 0 92 0 C92 0.33 92 0.66 92 1 C62.3 1 32.6 1 2 1 C2 31.36 2 61.72 2 93 C31.7 93 61.4 93 92 93 C92 93.33 92 93.66 92 94 C46.46 94.495 46.46 94.495 0 95 C0 63.65 0 32.3 0 0 Z " fill="#C1C1C1" transform="translate(902,325)"/>
      <path d="M0 0 C0.33 0 0.66 0 1 0 C1 4.62 1 9.24 1 14 C-2.96 14 -6.92 14 -11 14 C-11 11.69 -11 9.38 -11 7 C-10.67 8.32 -10.34 9.64 -10 11 C-8.906875 10.979375 -7.81375 10.95875 -6.6875 10.9375 C-3 11 -3 11 0 12 C0 8.04 0 4.08 0 0 Z " fill="#AEAEAE" transform="translate(1478,406)"/>
    </g>
    <g transform="translate(280.8,69.8) scale(0.6509,0.6400)">
      <path d="M0 0 C3.02711016 -0.30385765 5.84587474 -0.41986798 8.875 -0.3984375 C10.19540283 -0.40274277 10.19540283 -0.40274277 11.54248047 -0.40713501 C13.40527997 -0.40917828 15.2681008 -0.40363009 17.13085938 -0.39111328 C19.98876741 -0.37506308 22.84526116 -0.39095282 25.703125 -0.41015625 C27.5104198 -0.40817386 29.31771372 -0.40433029 31.125 -0.3984375 C31.98335449 -0.40451019 32.84170898 -0.41058289 33.72607422 -0.4168396 C36.1328125 -0.38818359 36.1328125 -0.38818359 40 0 C42.43769163 3.65653744 42.28943265 6.39789852 42.265625 10.625 C42.26849518 11.7399585 42.26849518 11.7399585 42.27142334 12.87744141 C42.27278317 14.44759459 42.26910079 16.0177591 42.26074219 17.58789062 C42.25003945 19.99114233 42.2606439 22.39364654 42.2734375 24.796875 C42.27211587 26.32291832 42.2695534 27.84896117 42.265625 29.375 C42.26967346 30.09381348 42.27372192 30.81262695 42.27789307 31.55322266 C42.24311682 35.25350434 42.10822399 36.83766401 40 40 C36.97288984 40.30385765 34.15412526 40.41986798 31.125 40.3984375 C30.24473145 40.40130768 29.36446289 40.40417786 28.45751953 40.40713501 C26.59472003 40.40917828 24.7318992 40.40363009 22.86914062 40.39111328 C20.01123259 40.37506308 17.15473884 40.39095282 14.296875 40.41015625 C12.4895802 40.40817386 10.68228628 40.40433029 8.875 40.3984375 C8.01664551 40.40451019 7.15829102 40.41058289 6.27392578 40.4168396 C3.8671875 40.38818359 3.8671875 40.38818359 0 40 C-2.43769163 36.34346256 -2.28943265 33.60210148 -2.265625 29.375 C-2.26753845 28.63169434 -2.2694519 27.88838867 -2.27142334 27.12255859 C-2.27278317 25.55240541 -2.26910079 23.9822409 -2.26074219 22.41210938 C-2.25003945 20.00885767 -2.2606439 17.60635346 -2.2734375 15.203125 C-2.27211587 13.67708168 -2.2695534 12.15103883 -2.265625 10.625 C-2.26967346 9.90618652 -2.27372192 9.18737305 -2.27789307 8.44677734 C-2.24311682 4.74649566 -2.10822399 3.16233599 0 0 Z "
        fill="#A8A8A8" transform="translate(8,11)"/>
      <path d="M0 0 C3.36720387 1.39332574 4.9859524 2.9789286 7 6 C6.34 6 5.68 6 5 6 C4.731875 6.639375 4.46375 7.27875 4.1875 7.9375 C3 10 3 10 0 11 C0 10.01 0 9.02 0 8 C-1.65 8 -3.3 8 -5 8 C-5 11.3 -5 14.6 -5 18 C0.94 18 6.88 18 13 18 C13 14.37 13 10.74 13 7 C12.34 7 11.68 7 11 7 C11 6.01 11 5.02 11 4 C15.875 4.875 15.875 4.875 17 6 C17.15193163 8.12119924 17.22183514 10.24855315 17.25 12.375 C17.27578125 13.53773437 17.3015625 14.70046875 17.328125 15.8984375 C17 19 17 19 15.78051758 20.66894531 C13.46404092 22.40066487 12.05826808 22.38701171 9.18359375 22.3984375 C8.25482422 22.40230469 7.32605469 22.40617187 6.36914062 22.41015625 C5.40169922 22.39855469 4.43425781 22.38695313 3.4375 22.375 C1.98053711 22.39240234 1.98053711 22.39240234 0.49414062 22.41015625 C-0.89708008 22.40435547 -0.89708008 22.40435547 -2.31640625 22.3984375 C-3.59173218 22.39336182 -3.59173218 22.39336182 -4.89282227 22.38818359 C-5.58819092 22.26008301 -6.28355957 22.13198242 -7 22 C-9.3797234 18.43041489 -9.29830341 16.67281698 -9.3125 12.4375 C-9.32925781 11.28121094 -9.34601562 10.12492187 -9.36328125 8.93359375 C-9.24339844 7.96550781 -9.12351562 6.99742188 -9 6 C-5.5647952 3.70986347 -4.014669 3.82157027 0 4 C0 2.68 0 1.36 0 0 Z "
        fill="#0F0F0F" transform="translate(24,18)"/>
    </g>
  </g>

  </g>

  <!-- "No internet" panel, below the game box -->
  <g font-family="Roboto, Arial, sans-serif">
    <text x="20" y="215" font-size="32" font-weight="500" fill="#202124">No internet</text>
    <text x="20" y="252" font-size="18" fill="#5f6368">Try:</text>
    <text x="44" y="280" font-size="18" fill="#5f6368">&#8226; Checking this user's GitHub profile</text>
    <text x="44" y="306" font-size="18" fill="#5f6368">&#8226; Exploring the pinned repositories</text>
    <text x="44" y="332" font-size="18" fill="#5f6368">&#8226; Reviewing recent projects</text>
    <text x="20" y="364" font-size="12" letter-spacing="0.5" fill="#8a8f96">ERR_GITHUB_NOT_VISITED</text>
  </g>

</svg>
